<?xml version="1.0" encoding="UTF-8"?><svg id="Elevations" xmlns="http://www.w3.org/2000/svg" viewBox="0 0 3968.5 850.39"><defs><style>.cls-1{fill:none;stroke:#000;stroke-linecap:round;stroke-linejoin:round;stroke-width:2.83px;}</style></defs><line class="cls-1" x1="2929.32" y1="738.57" x2="2929.32" y2="450.85"/><line class="cls-1" x1="1069.8" y1="738.57" x2="2983.75" y2="738.57"/><line class="cls-1" x1="2983.75" y1="823.61" x2="984.76" y2="823.61"/><line class="cls-1" x1="2983.75" y1="823.61" x2="984.76" y2="823.61"/><line class="cls-1" x1="984.76" y1="26.79" x2="2983.75" y2="26.79"/><line class="cls-1" x1="984.76" y1="26.79" x2="2983.75" y2="26.79"/><line class="cls-1" x1="2983.75" y1="738.57" x2="2983.75" y2="26.79"/><line class="cls-1" x1="1635.87" y1="117.5" x2="1635.87" y2="26.79"/><line class="cls-1" x1="1331.15" y1="117.5" x2="1635.87" y2="117.5"/><line class="cls-1" x1="1331.15" y1="117.5" x2="1331.15" y2="26.79"/><line class="cls-1" x1="1069.8" y1="117.5" x2="1331.15" y2="117.5"/><line class="cls-1" x1="2983.75" y1="738.57" x2="2983.75" y2="823.61"/><line class="cls-1" x1="2983.75" y1="738.57" x2="2983.75" y2="823.61"/><line class="cls-1" x1="984.76" y1="738.57" x2="984.76" y2="823.61"/><line class="cls-1" x1="984.76" y1="738.57" x2="984.76" y2="823.61"/><line class="cls-1" x1="2881.7" y1="738.57" x2="2881.7" y2="26.79"/><line class="cls-1" x1="2881.7" y1="450.85" x2="2983.75" y2="450.85"/><line class="cls-1" x1="2881.7" y1="58.82" x2="2983.75" y2="58.82"/><line class="cls-1" x1="1069.8" y1="738.57" x2="1069.8" y2="26.79"/><line class="cls-1" x1="984.76" y1="738.57" x2="984.76" y2="26.79"/><line class="cls-1" x1="984.76" y1="738.57" x2="984.76" y2="26.79"/></svg>