<?xml version="1.0" encoding="UTF-8"?><svg id="Elevations" xmlns="http://www.w3.org/2000/svg" viewBox="0 0 3968.5 850.39"><defs><style>.cls-1{fill:none;stroke:#000;stroke-linecap:round;stroke-linejoin:round;stroke-width:2.83px;}</style></defs><line class="cls-1" x1="3391.09" y1="738.57" x2="3773.76" y2="738.57"/><line class="cls-1" x1="109.7" y1="738.57" x2="109.7" y2="26.79"/><line class="cls-1" x1="3858.8" y1="738.57" x2="3858.8" y2="26.79"/><line class="cls-1" x1="194.74" y1="738.57" x2="194.74" y2="26.79"/><line class="cls-1" x1="3773.76" y1="738.57" x2="3773.76" y2="26.79"/><line class="cls-1" x1="109.7" y1="823.61" x2="3391.09" y2="823.61"/><line class="cls-1" x1="109.7" y1="823.61" x2="3391.09" y2="823.61"/><line class="cls-1" x1="109.7" y1="738.57" x2="109.7" y2="823.61"/><line class="cls-1" x1="109.7" y1="738.57" x2="109.7" y2="823.61"/><line class="cls-1" x1="3858.8" y1="738.57" x2="3858.8" y2="823.61"/><line class="cls-1" x1="3858.8" y1="738.57" x2="3858.8" y2="823.61"/><line class="cls-1" x1="3391.09" y1="823.61" x2="3858.8" y2="823.61"/><line class="cls-1" x1="3391.09" y1="823.61" x2="3858.8" y2="823.61"/><line class="cls-1" x1="3306.05" y1="738.57" x2="3306.05" y2="26.79"/><line class="cls-1" x1="684" y1="738.57" x2="684" y2="26.79"/><line class="cls-1" x1="661.89" y1="738.57" x2="661.89" y2="26.79"/><line class="cls-1" x1="1486.2" y1="117.5" x2="1486.2" y2="26.79"/><line class="cls-1" x1="3858.8" y1="26.79" x2="3391.09" y2="26.79"/><line class="cls-1" x1="3858.8" y1="26.79" x2="3391.09" y2="26.79"/><line class="cls-1" x1="3391.09" y1="26.79" x2="109.7" y2="26.79"/><line class="cls-1" x1="3391.09" y1="26.79" x2="109.7" y2="26.79"/><line class="cls-1" x1="194.74" y1="738.57" x2="3391.09" y2="738.57"/><line class="cls-1" x1="3306.05" y1="117.5" x2="684" y2="117.5"/></svg>