<?xml version="1.0" encoding="UTF-8"?><svg id="Elevations" xmlns="http://www.w3.org/2000/svg" viewBox="0 0 3968.5 850.39"><defs><style>.cls-1{fill:none;stroke:#000;stroke-linecap:round;stroke-linejoin:round;stroke-width:2.83px;}</style></defs><rect class="cls-1" x="1177.91" y="415.42" width="396.85" height="252.28"/><line class="cls-1" x1="2983.75" y1="738.57" x2="2983.75" y2="26.79"/><line class="cls-1" x1="2983.75" y1="738.57" x2="2983.75" y2="26.79"/><line class="cls-1" x1="2898.71" y1="738.57" x2="2898.71" y2="26.79"/><line class="cls-1" x1="1086.8" y1="58.82" x2="984.76" y2="58.82"/><line class="cls-1" x1="1086.8" y1="450.85" x2="984.76" y2="450.85"/><line class="cls-1" x1="1086.8" y1="738.57" x2="1086.8" y2="26.79"/><line class="cls-1" x1="2513.2" y1="738.57" x2="2513.2" y2="26.79"/><line class="cls-1" x1="1927.84" y1="738.57" x2="1927.84" y2="26.79"/><line class="cls-1" x1="2154.61" y1="738.57" x2="2154.61" y2="26.79"/><line class="cls-1" x1="2637.35" y1="117.5" x2="2637.35" y2="26.79"/><line class="cls-1" x1="984.76" y1="738.57" x2="984.76" y2="26.79"/><line class="cls-1" x1="984.76" y1="738.57" x2="984.76" y2="26.79"/><line class="cls-1" x1="984.76" y1="738.57" x2="2571.87" y2="738.57"/><line class="cls-1" x1="984.76" y1="26.79" x2="2571.87" y2="26.79"/><line class="cls-1" x1="984.76" y1="26.79" x2="2571.87" y2="26.79"/><line class="cls-1" x1="2571.87" y1="26.79" x2="2983.75" y2="26.79"/><line class="cls-1" x1="2571.87" y1="26.79" x2="2983.75" y2="26.79"/><line class="cls-1" x1="2637.35" y1="117.5" x2="2898.71" y2="117.5"/><rect class="cls-1" x="1477.91" y="151.17" width="88.41" height="119.45"/><line class="cls-1" x1="1585.59" y1="233.51" x2="1617.45" y2="233.51"/><line class="cls-1" x1="1585.59" y1="738.57" x2="1585.59" y2="233.51"/><line class="cls-1" x1="1617.45" y1="738.57" x2="1617.45" y2="233.51"/><line class="cls-1" x1="2513.2" y1="92.27" x2="2154.61" y2="92.27"/><line class="cls-1" x1="1039.18" y1="738.57" x2="1039.18" y2="450.85"/><line class="cls-1" x1="2571.87" y1="738.57" x2="2898.71" y2="738.57"/><line class="cls-1" x1="984.76" y1="738.57" x2="984.76" y2="823.61"/><line class="cls-1" x1="2983.75" y1="738.57" x2="2983.75" y2="823.61"/><line class="cls-1" x1="2983.75" y1="823.61" x2="984.76" y2="823.61"/></svg>