<?xml version="1.0" encoding="UTF-8"?><svg id="Elevations" xmlns="http://www.w3.org/2000/svg" viewBox="0 0 3968.5 850.39"><defs><style>.cls-1{fill:none;stroke:#000;stroke-linecap:round;stroke-linejoin:round;stroke-width:2.83px;}</style></defs><line class="cls-1" x1="199.28" y1="738.57" x2="199.28" y2="26.79"/><rect class="cls-1" x="3405.26" y="46.63" width="340.16" height="691.94"/><rect class="cls-1" x="2951.71" y="46.63" width="340.16" height="691.94"/><rect class="cls-1" x="2498.17" y="46.63" width="340.16" height="691.94"/><rect class="cls-1" x="2044.63" y="46.63" width="340.16" height="691.94"/><rect class="cls-1" x="2044.63" y="46.63" width="340.16" height="691.94"/><rect class="cls-1" x="1591.08" y="46.63" width="340.16" height="691.94"/><rect class="cls-1" x="1137.54" y="46.63" width="340.16" height="691.94"/><rect class="cls-1" x="684" y="46.63" width="340.16" height="691.94"/><rect class="cls-1" x="229.61" y="46.63" width="325.98" height="691.94"/><line class="cls-1" x1="199.28" y1="46.63" x2="3773.76" y2="46.63"/><line class="cls-1" x1="684" y1="738.57" x2="684" y2="46.63"/><line class="cls-1" x1="661.89" y1="738.57" x2="661.89" y2="46.63"/><line class="cls-1" x1="229.61" y1="738.57" x2="229.61" y2="46.63"/><line class="cls-1" x1="555.59" y1="171.64" x2="555.59" y2="46.63"/><rect class="cls-1" x="243.78" y="60.8" width="59.53" height="79.37"/><rect class="cls-1" x="481.89" y="60.8" width="59.53" height="79.37"/><rect class="cls-1" x="323.15" y="60.8" width="59.53" height="79.37"/><rect class="cls-1" x="402.52" y="60.8" width="59.53" height="79.37"/><polyline class="cls-1" points="684 489.12 684 517.46 1024.16 517.46"/><rect class="cls-1" x="3405.26" y="46.63" width="340.16" height="436.82"/><rect class="cls-1" x="3430.77" y="184.96" width="289.13" height="274.96"/><rect class="cls-1" x="3412.91" y="167.1" width="324.85" height="310.68"/><rect class="cls-1" x="3430.77" y="70.16" width="289.13" height="72.28"/><rect class="cls-1" x="3412.91" y="52.3" width="324.85" height="108"/><rect class="cls-1" x="2951.71" y="46.63" width="340.16" height="436.82"/><rect class="cls-1" x="2977.23" y="184.96" width="289.13" height="274.96"/><rect class="cls-1" x="2959.37" y="167.1" width="324.85" height="310.68"/><rect class="cls-1" x="2977.23" y="70.16" width="289.13" height="72.28"/><rect class="cls-1" x="2959.37" y="52.3" width="324.85" height="108"/><rect class="cls-1" x="2498.17" y="46.63" width="340.16" height="436.82"/><rect class="cls-1" x="2523.68" y="184.96" width="289.13" height="274.96"/><rect class="cls-1" x="2505.82" y="167.1" width="324.85" height="310.68"/><rect class="cls-1" x="2523.68" y="70.16" width="289.13" height="72.28"/><rect class="cls-1" x="2505.82" y="52.3" width="324.85" height="108"/><rect class="cls-1" x="2044.63" y="46.63" width="340.16" height="436.82"/><rect class="cls-1" x="2070.14" y="184.96" width="289.13" height="274.96"/><rect class="cls-1" x="2052.28" y="167.1" width="324.85" height="310.68"/><rect class="cls-1" x="2070.14" y="70.16" width="289.13" height="72.28"/><rect class="cls-1" x="2052.28" y="52.3" width="324.85" height="108"/><rect class="cls-1" x="1591.08" y="46.63" width="340.16" height="436.82"/><rect class="cls-1" x="1616.6" y="184.96" width="289.13" height="274.96"/><rect class="cls-1" x="1598.74" y="167.1" width="324.85" height="310.68"/><rect class="cls-1" x="1616.6" y="70.16" width="289.13" height="72.28"/><rect class="cls-1" x="1598.74" y="52.3" width="324.85" height="108"/><rect class="cls-1" x="1137.54" y="46.63" width="340.16" height="436.82"/><rect class="cls-1" x="1163.05" y="184.96" width="289.13" height="274.96"/><rect class="cls-1" x="1145.2" y="167.1" width="324.85" height="310.68"/><rect class="cls-1" x="1163.05" y="70.16" width="289.13" height="72.28"/><rect class="cls-1" x="1145.2" y="52.3" width="324.85" height="108"/><line class="cls-1" x1="3773.76" y1="738.57" x2="3773.76" y2="26.79"/><rect class="cls-1" x="684" y="46.63" width="340.16" height="436.82"/><rect class="cls-1" x="709.51" y="184.96" width="289.13" height="274.96"/><rect class="cls-1" x="691.65" y="167.1" width="324.85" height="310.68"/><rect class="cls-1" x="709.51" y="70.16" width="289.13" height="72.28"/><rect class="cls-1" x="691.65" y="52.3" width="324.85" height="108"/><line class="cls-1" x1="2951.71" y1="483.45" x2="2951.71" y2="608.17"/><line class="cls-1" x1="2838.33" y1="483.45" x2="2838.33" y2="608.17"/><line class="cls-1" x1="2498.17" y1="483.45" x2="2498.17" y2="608.17"/><line class="cls-1" x1="2384.79" y1="483.45" x2="2384.79" y2="608.17"/><line class="cls-1" x1="2044.63" y1="483.45" x2="2044.63" y2="608.17"/><line class="cls-1" x1="1931.24" y1="483.45" x2="1931.24" y2="608.17"/><line class="cls-1" x1="1591.08" y1="483.45" x2="1591.08" y2="608.17"/><line class="cls-1" x1="1477.7" y1="483.45" x2="1477.7" y2="608.17"/><line class="cls-1" x1="1137.54" y1="483.45" x2="1137.54" y2="608.17"/><line class="cls-1" x1="1024.16" y1="483.45" x2="1024.16" y2="608.17"/><line class="cls-1" x1="3291.87" y1="483.45" x2="3291.87" y2="608.17"/><line class="cls-1" x1="3745.42" y1="483.45" x2="3745.42" y2="738.57"/><line class="cls-1" x1="3405.26" y1="483.45" x2="3405.26" y2="608.17"/><line class="cls-1" x1="3405.26" y1="517.46" x2="3745.42" y2="517.46"/><line class="cls-1" x1="3291.87" y1="489.12" x2="2951.71" y2="489.12"/><polyline class="cls-1" points="3745.42 483.45 3745.42 489.12 3405.26 489.12"/><line class="cls-1" x1="2951.71" y1="517.46" x2="3291.87" y2="517.46"/><line class="cls-1" x1="2838.33" y1="489.12" x2="2498.17" y2="489.12"/><line class="cls-1" x1="2498.17" y1="517.46" x2="2838.33" y2="517.46"/><line class="cls-1" x1="2384.79" y1="489.12" x2="2044.63" y2="489.12"/><line class="cls-1" x1="2044.63" y1="517.46" x2="2384.79" y2="517.46"/><line class="cls-1" x1="1931.24" y1="489.12" x2="1591.08" y2="489.12"/><line class="cls-1" x1="1591.08" y1="517.46" x2="1931.24" y2="517.46"/><line class="cls-1" x1="1477.7" y1="489.12" x2="1137.54" y2="489.12"/><line class="cls-1" x1="1137.54" y1="517.46" x2="1477.7" y2="517.46"/><line class="cls-1" x1="1024.16" y1="489.12" x2="684" y2="489.12"/><line class="cls-1" x1="199.28" y1="738.57" x2="3773.76" y2="738.57"/><line class="cls-1" x1="199.28" y1="26.79" x2="3773.76" y2="26.79"/><line class="cls-1" x1="199.28" y1="26.79" x2="109.7" y2="26.79"/><line class="cls-1" x1="3773.76" y1="26.79" x2="3858.8" y2="26.79"/><line class="cls-1" x1="109.7" y1="823.61" x2="109.7" y2="26.79"/><line class="cls-1" x1="3858.8" y1="823.61" x2="3858.8" y2="26.79"/><line class="cls-1" x1="3858.8" y1="823.61" x2="109.7" y2="823.61"/><line class="cls-1" x1="684" y1="738.57" x2="684" y2="630.85"/><line class="cls-1" x1="684" y1="615.73" x2="684" y2="608.17"/><line class="cls-1" x1="1137.54" y1="615.73" x2="1137.54" y2="623.29"/><path class="cls-1" d="M1020.38,608.17c-1,0-1.96.4-2.67,1.11-.71.71-1.11,1.67-1.11,2.67s.4,1.96,1.11,2.67c.71.71,1.67,1.11,2.67,1.11h120.94c1,0,1.96-.4,2.67-1.11.71-.71,1.11-1.67,1.11-2.67s-.4-1.96-1.11-2.67c-.71-.71-1.67-1.11-2.67-1.11h-120.94Z"/><path class="cls-1" d="M1020.38,623.29c-1,0-1.96.4-2.67,1.11-.71.71-1.11,1.67-1.11,2.67s.4,1.96,1.11,2.67c.71.71,1.67,1.11,2.67,1.11h120.94c1,0,1.96-.4,2.67-1.11s1.11-1.67,1.11-2.67-.4-1.96-1.11-2.67c-.71-.71-1.67-1.11-2.67-1.11h-120.94Z"/><path class="cls-1" d="M1473.92,608.17c-1,0-1.96.4-2.67,1.11s-1.11,1.67-1.11,2.67.4,1.96,1.11,2.67c.71.71,1.67,1.11,2.67,1.11h120.94c1,0,1.96-.4,2.67-1.11.71-.71,1.11-1.67,1.11-2.67,0-1-.4-1.96-1.11-2.67s-1.67-1.11-2.67-1.11h-120.94Z"/><path class="cls-1" d="M1473.92,623.29c-1,0-1.96.4-2.67,1.11s-1.11,1.67-1.11,2.67.4,1.96,1.11,2.67c.71.71,1.67,1.11,2.67,1.11h120.94c1,0,1.96-.4,2.67-1.11.71-.71,1.11-1.67,1.11-2.67s-.4-1.96-1.11-2.67-1.67-1.11-2.67-1.11h-120.94Z"/><path class="cls-1" d="M1927.46,608.17c-1,0-1.96.4-2.67,1.11-.71.71-1.11,1.67-1.11,2.67s.4,1.96,1.11,2.67c.71.71,1.67,1.11,2.67,1.11h120.94c1,0,1.96-.4,2.67-1.11.71-.71,1.11-1.67,1.11-2.67s-.4-1.96-1.11-2.67c-.71-.71-1.67-1.11-2.67-1.11h-120.94Z"/><path class="cls-1" d="M1927.46,623.29c-1,0-1.96.4-2.67,1.11-.71.71-1.11,1.67-1.11,2.67s.4,1.96,1.11,2.67c.71.71,1.67,1.11,2.67,1.11h120.94c1,0,1.96-.4,2.67-1.11s1.11-1.67,1.11-2.67-.4-1.96-1.11-2.67c-.71-.71-1.67-1.11-2.67-1.11h-120.94Z"/><path class="cls-1" d="M2381.01,608.17c-1,0-1.96.4-2.67,1.11-.71.71-1.11,1.67-1.11,2.67s.4,1.96,1.11,2.67c.71.71,1.67,1.11,2.67,1.11h120.94c1,0,1.96-.4,2.67-1.11.71-.71,1.11-1.67,1.11-2.67s-.4-1.96-1.11-2.67c-.71-.71-1.67-1.11-2.67-1.11h-120.94Z"/><path class="cls-1" d="M2381.01,623.29c-1,0-1.96.4-2.67,1.11-.71.71-1.11,1.67-1.11,2.67s.4,1.96,1.11,2.67c.71.71,1.67,1.11,2.67,1.11h120.94c1,0,1.96-.4,2.67-1.11s1.11-1.67,1.11-2.67-.4-1.96-1.11-2.67c-.71-.71-1.67-1.11-2.67-1.11h-120.94Z"/><path class="cls-1" d="M2834.55,608.17c-1,0-1.96.4-2.67,1.11-.71.71-1.11,1.67-1.11,2.67s.4,1.96,1.11,2.67c.71.71,1.67,1.11,2.67,1.11h120.94c1,0,1.96-.4,2.67-1.11.71-.71,1.11-1.67,1.11-2.67s-.4-1.96-1.11-2.67c-.71-.71-1.67-1.11-2.67-1.11h-120.94Z"/><path class="cls-1" d="M2834.55,623.29c-1,0-1.96.4-2.67,1.11-.71.71-1.11,1.67-1.11,2.67s.4,1.96,1.11,2.67c.71.71,1.67,1.11,2.67,1.11h120.94c1,0,1.96-.4,2.67-1.11s1.11-1.67,1.11-2.67-.4-1.96-1.11-2.67c-.71-.71-1.67-1.11-2.67-1.11h-120.94Z"/><path class="cls-1" d="M3288.09,608.17c-1,0-1.96.4-2.67,1.11-.71.71-1.11,1.67-1.11,2.67s.4,1.96,1.11,2.67c.71.71,1.67,1.11,2.67,1.11h120.94c1,0,1.96-.4,2.67-1.11.71-.71,1.11-1.67,1.11-2.67s-.4-1.96-1.11-2.67c-.71-.71-1.67-1.11-2.67-1.11h-120.94Z"/><path class="cls-1" d="M3288.09,623.29c-1,0-1.96.4-2.67,1.11-.71.71-1.11,1.67-1.11,2.67s.4,1.96,1.11,2.67c.71.71,1.67,1.11,2.67,1.11h120.94c1,0,1.96-.4,2.67-1.11s1.11-1.67,1.11-2.67-.4-1.96-1.11-2.67c-.71-.71-1.67-1.11-2.67-1.11h-120.94Z"/><line class="cls-1" x1="3405.26" y1="718.72" x2="3745.42" y2="718.72"/><line class="cls-1" x1="3405.26" y1="630.85" x2="3405.26" y2="738.57"/><line class="cls-1" x1="3405.26" y1="615.73" x2="3405.26" y2="623.29"/><line class="cls-1" x1="2951.71" y1="718.72" x2="3291.87" y2="718.72"/><line class="cls-1" x1="2951.71" y1="630.85" x2="2951.71" y2="738.57"/><line class="cls-1" x1="2498.17" y1="718.72" x2="2838.33" y2="718.72"/><line class="cls-1" x1="2498.17" y1="630.85" x2="2498.17" y2="738.57"/><line class="cls-1" x1="2838.33" y1="630.85" x2="2838.33" y2="738.57"/><line class="cls-1" x1="2838.33" y1="615.73" x2="2838.33" y2="623.29"/><line class="cls-1" x1="3291.87" y1="630.85" x2="3291.87" y2="738.57"/><line class="cls-1" x1="3291.87" y1="615.73" x2="3291.87" y2="623.29"/><line class="cls-1" x1="2951.71" y1="615.73" x2="2951.71" y2="623.29"/><line class="cls-1" x1="2498.17" y1="615.73" x2="2498.17" y2="623.29"/><line class="cls-1" x1="2044.63" y1="718.72" x2="2384.79" y2="718.72"/><line class="cls-1" x1="2044.63" y1="630.85" x2="2044.63" y2="738.57"/><line class="cls-1" x1="2384.79" y1="630.85" x2="2384.79" y2="738.57"/><line class="cls-1" x1="2384.79" y1="615.73" x2="2384.79" y2="623.29"/><line class="cls-1" x1="2044.63" y1="615.73" x2="2044.63" y2="623.29"/><line class="cls-1" x1="1591.08" y1="718.72" x2="1931.24" y2="718.72"/><line class="cls-1" x1="1591.08" y1="630.85" x2="1591.08" y2="738.57"/><line class="cls-1" x1="1931.24" y1="630.85" x2="1931.24" y2="738.57"/><line class="cls-1" x1="1931.24" y1="615.73" x2="1931.24" y2="623.29"/><line class="cls-1" x1="1591.08" y1="615.73" x2="1591.08" y2="623.29"/><line class="cls-1" x1="1137.54" y1="718.72" x2="1477.7" y2="718.72"/><line class="cls-1" x1="1137.54" y1="630.85" x2="1137.54" y2="738.57"/><line class="cls-1" x1="1477.7" y1="630.85" x2="1477.7" y2="738.57"/><line class="cls-1" x1="1477.7" y1="615.73" x2="1477.7" y2="623.29"/><line class="cls-1" x1="684" y1="718.72" x2="1024.16" y2="718.72"/><line class="cls-1" x1="684" y1="630.85" x2="684" y2="738.57"/><line class="cls-1" x1="684" y1="476.36" x2="684" y2="608.17"/><line class="cls-1" x1="1024.16" y1="630.85" x2="1024.16" y2="738.57"/><line class="cls-1" x1="1024.16" y1="615.73" x2="1024.16" y2="623.29"/><line class="cls-1" x1="684" y1="615.73" x2="684" y2="623.29"/><line class="cls-1" x1="687.78" y1="608.17" x2="684" y2="608.17"/><line class="cls-1" x1="687.78" y1="615.73" x2="684" y2="615.73"/><line class="cls-1" x1="687.78" y1="623.29" x2="684" y2="623.29"/><line class="cls-1" x1="687.78" y1="630.85" x2="684" y2="630.85"/><line class="cls-1" x1="684" y1="611.95" x2="684" y2="611.95"/><path class="cls-1" d="M687.78,615.73c1,0,1.96-.4,2.67-1.11.71-.71,1.11-1.67,1.11-2.67s-.4-1.96-1.11-2.67c-.71-.71-1.67-1.11-2.67-1.11"/><line class="cls-1" x1="684" y1="627.07" x2="684" y2="627.07"/><path class="cls-1" d="M687.78,630.85c1,0,1.96-.4,2.67-1.11.71-.71,1.11-1.67,1.11-2.67s-.4-1.96-1.11-2.67c-.71-.71-1.67-1.11-2.67-1.11"/><rect class="cls-1" x="229.61" y="158.03" width="325.98" height="580.53"/><rect class="cls-1" x="272.13" y="483.45" width="240.94" height="212.6"/><rect class="cls-1" x="272.13" y="200.55" width="240.94" height="240.38"/><path class="cls-1" d="M541.42,440.93c0-.89-.17-1.78-.5-2.61-.36-.9-.89-1.72-1.58-2.4-.68-.68-1.5-1.22-2.4-1.58-.83-.33-1.71-.5-2.61-.5s-1.78.17-2.61.5c-.9.36-1.72.89-2.4,1.58-.68.68-1.22,1.5-1.58,2.4-.33.83-.5,1.71-.5,2.61s.17,1.78.5,2.61c.36.9.89,1.72,1.58,2.4.69.68,1.5,1.22,2.4,1.58.83.33,1.72.5,2.61.5s1.78-.17,2.61-.5c.9-.36,1.72-.89,2.4-1.58.68-.68,1.22-1.5,1.58-2.4.33-.83.5-1.71.5-2.61Z"/><path class="cls-1" d="M541.42,469.28c0-.89-.17-1.78-.5-2.61-.36-.9-.89-1.72-1.58-2.4-.68-.68-1.5-1.22-2.4-1.58-.83-.33-1.71-.5-2.61-.5s-1.78.17-2.61.5c-.9.36-1.72.89-2.4,1.58-.68.68-1.22,1.5-1.58,2.4-.33.83-.5,1.71-.5,2.61s.17,1.78.5,2.61c.36.9.89,1.72,1.58,2.4.69.68,1.5,1.22,2.4,1.58.83.33,1.72.5,2.61.5s1.78-.17,2.61-.5c.9-.36,1.72-.89,2.4-1.58s1.22-1.5,1.58-2.4c.33-.83.5-1.71.5-2.61Z"/><rect class="cls-1" x="508.82" y="467.15" width="25.51" height="4.25"/></svg>