<?xml version="1.0" encoding="UTF-8"?><svg id="Elevations" xmlns="http://www.w3.org/2000/svg" viewBox="0 0 3968.5 2352.76"><defs><style>.cls-1{fill:none;stroke:#000;stroke-linecap:round;stroke-linejoin:round;stroke-width:2.83px;}.cls-2{font-family:Inter-ExtraLight, Inter;font-size:56.69px;font-variation-settings:'opsz' 14, 'wght' 200;font-weight:200;}.cls-3{letter-spacing:-.03em;}.cls-4{letter-spacing:-.03em;}.cls-5{letter-spacing:.02em;}</style></defs><line class="cls-1" x1="3745.42" y1="1903.75" x2="3745.42" y2="1977.35"/><line class="cls-1" x1="2384.79" y1="1965.54" x2="2044.63" y2="1965.54"/><line class="cls-1" x1="2044.63" y1="1951.37" x2="2044.63" y2="1965.54"/><line class="cls-1" x1="2384.79" y1="1951.37" x2="2044.63" y2="1951.37"/><line class="cls-1" x1="2384.79" y1="1951.37" x2="2384.79" y2="1965.54"/><line class="cls-1" x1="199.28" y1="1903.75" x2="3773.76" y2="1903.75"/><polyline class="cls-1" points="2498.17 1951.37 2498.17 1903.75 2384.79 1903.75 2384.79 1977.35 2498.17 1977.35"/><line class="cls-1" x1="2951.71" y1="1951.37" x2="2951.71" y2="1903.75"/><polyline class="cls-1" points="2838.33 1903.75 2838.33 1977.35 2951.71 1977.35"/><line class="cls-1" x1="1024.16" y1="1965.54" x2="684" y2="1965.54"/><line class="cls-1" x1="684" y1="1951.37" x2="684" y2="1965.54"/><line class="cls-1" x1="1024.16" y1="1951.37" x2="684" y2="1951.37"/><line class="cls-1" x1="1024.16" y1="1951.37" x2="1024.16" y2="1965.54"/><line class="cls-1" x1="508.82" y1="2005.07" x2="508.82" y2="2007.91"/><line class="cls-1" x1="534.33" y1="2005.07" x2="534.33" y2="2007.91"/><polyline class="cls-1" points="1137.54 1951.37 1137.54 1903.85 1024.16 1903.85 1024.16 1951.37"/><line class="cls-1" x1="1923.59" y1="1969.8" x2="1598.74" y2="1969.8"/><line class="cls-1" x1="1477.7" y1="2005.8" x2="1477.7" y2="2007.51"/><line class="cls-1" x1="1137.54" y1="2005.8" x2="1137.54" y2="2007.51"/><line class="cls-1" x1="1477.7" y1="1965.54" x2="1477.7" y2="2005.8"/><line class="cls-1" x1="1137.54" y1="1965.54" x2="1137.54" y2="2005.8"/><polyline class="cls-1" points="1931.24 1903.75 1931.24 1977.35 2044.63 1977.35"/><line class="cls-1" x1="1931.24" y1="1958.74" x2="1591.08" y2="1958.74"/><line class="cls-1" x1="1931.24" y1="1958.17" x2="1591.08" y2="1958.17"/><line class="cls-1" x1="3745.42" y1="1903.75" x2="3773.76" y2="1903.75"/><polyline class="cls-1" points="684 91.84 3306.05 91.84 3306.05 503.72 3773.76 503.72 3773.76 1903.75"/><line class="cls-1" x1="199.28" y1="1903.75" x2="199.28" y2="864.28"/><line class="cls-1" x1="2384.79" y1="2005.8" x2="2384.79" y2="2007.51"/><line class="cls-1" x1="2044.63" y1="2005.8" x2="2044.63" y2="2007.51"/><line class="cls-1" x1="2384.79" y1="1965.54" x2="2384.79" y2="2005.8"/><line class="cls-1" x1="2044.63" y1="1965.54" x2="2044.63" y2="2005.8"/><line class="cls-1" x1="1931.24" y1="2005.8" x2="1931.24" y2="2007.51"/><line class="cls-1" x1="1591.08" y1="2005.8" x2="1591.08" y2="2007.51"/><line class="cls-1" x1="1931.24" y1="1965.54" x2="1931.24" y2="2005.8"/><line class="cls-1" x1="1591.08" y1="1965.54" x2="1591.08" y2="2005.8"/><line class="cls-1" x1="555.59" y1="2003.65" x2="229.61" y2="2003.65"/><line class="cls-1" x1="229.61" y1="1992.32" x2="229.61" y2="2003.65"/><line class="cls-1" x1="555.59" y1="1992.32" x2="229.61" y2="1992.32"/><line class="cls-1" x1="555.59" y1="1992.32" x2="555.59" y2="2003.65"/><line class="cls-1" x1="2838.33" y1="1958.74" x2="2498.17" y2="1958.74"/><line class="cls-1" x1="2838.33" y1="1958.17" x2="2498.17" y2="1958.17"/><line class="cls-1" x1="2384.79" y1="1958.74" x2="2044.63" y2="1958.74"/><line class="cls-1" x1="2384.79" y1="1958.17" x2="2044.63" y2="1958.17"/><line class="cls-1" x1="1024.16" y1="1958.74" x2="684" y2="1958.74"/><line class="cls-1" x1="1024.16" y1="1958.17" x2="684" y2="1958.17"/><path class="cls-1" d="M229.61,2331.78c42.79,0,85.17-8.43,124.71-24.8,39.57-16.38,75.52-40.4,105.8-70.68,30.28-30.28,54.3-66.24,70.69-105.81,16.37-39.54,24.79-81.91,24.79-124.7"/><polyline class="cls-1" points="1591.08 1951.37 1591.08 1903.75 1477.7 1903.75 1477.7 1951.37"/><line class="cls-1" x1="684" y1="1951.37" x2="684" y2="1762.87"/><line class="cls-1" x1="3737.76" y1="1951.27" x2="3412.91" y2="1951.27"/><line class="cls-1" x1="3737.76" y1="1947.02" x2="3412.91" y2="1947.02"/><line class="cls-1" x1="2052.28" y1="1947.02" x2="2052.28" y2="1951.37"/><line class="cls-1" x1="2377.13" y1="1947.02" x2="2052.28" y2="1947.02"/><line class="cls-1" x1="2377.13" y1="1947.02" x2="2377.13" y2="1951.37"/><line class="cls-1" x1="229.61" y1="2005.8" x2="229.61" y2="2331.78"/><line class="cls-1" x1="2830.67" y1="1951.27" x2="2505.82" y2="1951.27"/><line class="cls-1" x1="2830.67" y1="1947.02" x2="2505.82" y2="1947.02"/><line class="cls-1" x1="1923.59" y1="1951.27" x2="1598.74" y2="1951.27"/><line class="cls-1" x1="1923.59" y1="1947.02" x2="1598.74" y2="1947.02"/><line class="cls-1" x1="1477.7" y1="1965.54" x2="1137.54" y2="1965.54"/><line class="cls-1" x1="1137.54" y1="1951.37" x2="1137.54" y2="1965.54"/><line class="cls-1" x1="1477.7" y1="1951.37" x2="1137.54" y2="1951.37"/><line class="cls-1" x1="1477.7" y1="1951.37" x2="1477.7" y2="1965.54"/><line class="cls-1" x1="1024.16" y1="2005.8" x2="1024.16" y2="2007.51"/><line class="cls-1" x1="684" y1="2005.8" x2="684" y2="2007.51"/><line class="cls-1" x1="1024.16" y1="1965.54" x2="1024.16" y2="2005.8"/><line class="cls-1" x1="684" y1="1965.54" x2="684" y2="2005.8"/><line class="cls-1" x1="2830.67" y1="1969.8" x2="2505.82" y2="1969.8"/><line class="cls-1" x1="2377.13" y1="1969.89" x2="2052.28" y2="1969.89"/><line class="cls-1" x1="2052.28" y1="1965.54" x2="2052.28" y2="1969.89"/><line class="cls-1" x1="2377.13" y1="1965.54" x2="2377.13" y2="1969.89"/><line class="cls-1" x1="598.11" y1="2260.91" x2="187.09" y2="2260.91"/><line class="cls-1" x1="187.09" y1="2005.8" x2="508.82" y2="2005.8"/><line class="cls-1" x1="3284.22" y1="1951.27" x2="2959.37" y2="1951.27"/><line class="cls-1" x1="3284.22" y1="1947.02" x2="2959.37" y2="1947.02"/><line class="cls-1" x1="199.28" y1="404.22" x2="661.89" y2="404.22"/><line class="cls-1" x1="661.89" y1="378.71" x2="199.28" y2="378.71"/><line class="cls-1" x1="3284.22" y1="1969.8" x2="2959.37" y2="1969.8"/><line class="cls-1" x1="3291.87" y1="1965.54" x2="2951.71" y2="1965.54"/><line class="cls-1" x1="2951.71" y1="1951.37" x2="2951.71" y2="1965.54"/><line class="cls-1" x1="3291.87" y1="1951.37" x2="2951.71" y2="1951.37"/><line class="cls-1" x1="3291.87" y1="1958.74" x2="3291.87" y2="1965.54"/><line class="cls-1" x1="3737.76" y1="1969.8" x2="3412.91" y2="1969.8"/><line class="cls-1" x1="1470.05" y1="1969.8" x2="1145.2" y2="1969.8"/><line class="cls-1" x1="1016.5" y1="1969.8" x2="691.65" y2="1969.8"/><line class="cls-1" x1="3745.42" y1="1958.74" x2="3405.26" y2="1958.74"/><line class="cls-1" x1="3745.42" y1="1958.17" x2="3405.26" y2="1958.17"/><line class="cls-1" x1="1477.7" y1="1958.74" x2="1137.54" y2="1958.74"/><line class="cls-1" x1="1477.7" y1="1958.17" x2="1137.54" y2="1958.17"/><line class="cls-1" x1="2838.33" y1="2005.8" x2="2838.33" y2="2007.51"/><line class="cls-1" x1="2498.17" y1="2005.8" x2="2498.17" y2="2007.51"/><line class="cls-1" x1="2838.33" y1="1965.54" x2="2838.33" y2="2005.8"/><line class="cls-1" x1="2498.17" y1="1965.54" x2="2498.17" y2="2005.8"/><line class="cls-1" x1="3291.87" y1="2005.8" x2="3291.87" y2="2007.51"/><line class="cls-1" x1="2951.71" y1="2005.8" x2="2951.71" y2="2007.51"/><line class="cls-1" x1="3291.87" y1="1965.54" x2="3291.87" y2="2005.8"/><line class="cls-1" x1="2951.71" y1="1965.54" x2="2951.71" y2="2005.8"/><line class="cls-1" x1="272.13" y1="2002.24" x2="272.13" y2="2003.65"/><line class="cls-1" x1="513.07" y1="2002.24" x2="272.13" y2="2002.24"/><line class="cls-1" x1="513.07" y1="2002.24" x2="513.07" y2="2003.65"/><line class="cls-1" x1="272.13" y1="1992.32" x2="272.13" y2="1993.73"/><line class="cls-1" x1="513.07" y1="1992.32" x2="513.07" y2="1993.73"/><line class="cls-1" x1="513.07" y1="1993.73" x2="272.13" y2="1993.73"/><line class="cls-1" x1="2377.13" y1="1951.27" x2="2052.28" y2="1951.27"/><line class="cls-1" x1="2377.13" y1="1969.8" x2="2052.28" y2="1969.8"/><polyline class="cls-1" points="3391.09 6.8 3391.09 418.68 3858.8 418.68 3858.8 2005.8 3745.42 2005.8"/><polyline class="cls-1" points="1024.16 1951.37 1024.16 1977.45 1024.16 1977.45"/><polyline class="cls-1" points="1137.54 1977.45 1137.54 1977.45 1137.54 1965.54 1137.54 1951.37"/><line class="cls-1" x1="1137.54" y1="1965.46" x2="1477.7" y2="1965.46"/><line class="cls-1" x1="3291.87" y1="1958.74" x2="2951.71" y2="1958.74"/><line class="cls-1" x1="3291.87" y1="1958.17" x2="2951.71" y2="1958.17"/><line class="cls-1" x1="2044.63" y1="1965.46" x2="2384.79" y2="1965.46"/><line class="cls-1" x1="1591.08" y1="1965.46" x2="1931.24" y2="1965.46"/><line class="cls-1" x1="684" y1="1965.46" x2="1024.16" y2="1965.46"/><line class="cls-1" x1="2498.17" y1="1965.46" x2="2838.33" y2="1965.46"/><line class="cls-1" x1="109.7" y1="2005.8" x2="109.7" y2="6.8"/><line class="cls-1" x1="684" y1="2005.8" x2="598.11" y2="2005.8"/><line class="cls-1" x1="1931.24" y1="2005.8" x2="2044.63" y2="2005.8"/><line class="cls-1" x1="2384.79" y1="2005.8" x2="2498.17" y2="2005.8"/><line class="cls-1" x1="2838.33" y1="2005.8" x2="2951.71" y2="2005.8"/><line class="cls-1" x1="3291.87" y1="2005.8" x2="3405.26" y2="2005.8"/><line class="cls-1" x1="1024.16" y1="1977.45" x2="1137.54" y2="1977.45"/><line class="cls-1" x1="199.28" y1="835.94" x2="199.28" y2="404.22"/><line class="cls-1" x1="508.82" y1="2005.8" x2="534.33" y2="2005.8"/><line class="cls-1" x1="1477.7" y1="1977.35" x2="1591.08" y2="1977.35"/><line class="cls-1" x1="661.89" y1="1062.71" x2="199.28" y2="1062.71"/><line class="cls-1" x1="3391.09" y1="6.8" x2="109.7" y2="6.8"/><line class="cls-1" x1="527.25" y1="1990.9" x2="508.82" y2="1990.9"/><line class="cls-1" x1="1137.54" y1="1965.46" x2="1137.54" y2="1965.46"/><line class="cls-1" x1="1137.54" y1="2005.8" x2="1024.16" y2="2005.8"/><polyline class="cls-1" points="187.09 2260.91 187.09 2345.95 598.11 2345.95 598.11 2260.91"/><line class="cls-1" x1="1477.7" y1="2005.8" x2="1591.08" y2="2005.8"/><line class="cls-1" x1="3745.42" y1="1951.37" x2="3745.42" y2="1951.37"/><line class="cls-1" x1="3405.26" y1="1965.46" x2="3745.42" y2="1965.46"/><line class="cls-1" x1="2838.33" y1="1951.37" x2="2838.33" y2="1951.37"/><line class="cls-1" x1="998.65" y1="1947.02" x2="998.65" y2="1951.27"/><line class="cls-1" x1="691.65" y1="1947.02" x2="691.65" y2="1951.27"/><line class="cls-1" x1="1016.5" y1="1947.02" x2="1016.5" y2="1951.27"/><line class="cls-1" x1="3405.26" y1="2007.51" x2="3745.42" y2="2007.51"/><line class="cls-1" x1="3737.76" y1="1951.37" x2="3737.76" y2="1965.54"/><line class="cls-1" x1="3412.91" y1="1951.37" x2="3412.91" y2="1965.54"/><line class="cls-1" x1="199.28" y1="864.28" x2="661.89" y2="864.28"/><line class="cls-1" x1="199.28" y1="835.94" x2="199.28" y2="864.28"/><line class="cls-1" x1="684" y1="835.94" x2="199.28" y2="835.94"/><line class="cls-1" x1="684" y1="1062.71" x2="684" y2="835.94"/><line class="cls-1" x1="661.89" y1="1062.71" x2="684" y2="1062.71"/><line class="cls-1" x1="1452.19" y1="1947.02" x2="1452.19" y2="1951.27"/><line class="cls-1" x1="1163.05" y1="1947.02" x2="1163.05" y2="1951.27"/><line class="cls-1" x1="1145.2" y1="1947.02" x2="1145.2" y2="1951.27"/><line class="cls-1" x1="1470.05" y1="1947.02" x2="1470.05" y2="1951.27"/><line class="cls-1" x1="1923.59" y1="1951.37" x2="1923.59" y2="1965.54"/><line class="cls-1" x1="1598.74" y1="1951.37" x2="1598.74" y2="1965.54"/><line class="cls-1" x1="199.28" y1="1034.36" x2="661.89" y2="1034.36"/><line class="cls-1" x1="2044.63" y1="1951.37" x2="2044.63" y2="1903.75"/><line class="cls-1" x1="2830.67" y1="1951.37" x2="2830.67" y2="1965.54"/><line class="cls-1" x1="2505.82" y1="1951.37" x2="2505.82" y2="1965.54"/><line class="cls-1" x1="2377.13" y1="1951.37" x2="2377.13" y2="1965.54"/><line class="cls-1" x1="2052.28" y1="1951.37" x2="2052.28" y2="1965.54"/><line class="cls-1" x1="527.25" y1="2005.07" x2="508.82" y2="2005.07"/><line class="cls-1" x1="1016.5" y1="1951.37" x2="1016.5" y2="1965.54"/><line class="cls-1" x1="691.65" y1="1951.37" x2="691.65" y2="1965.54"/><line class="cls-1" x1="534.33" y1="2007.91" x2="508.82" y2="2007.91"/><line class="cls-1" x1="1905.73" y1="1965.54" x2="1905.73" y2="1969.8"/><line class="cls-1" x1="1616.6" y1="1965.54" x2="1616.6" y2="1969.8"/><line class="cls-1" x1="1598.74" y1="1965.54" x2="1598.74" y2="1969.8"/><line class="cls-1" x1="1923.59" y1="1965.54" x2="1923.59" y2="1969.8"/><line class="cls-1" x1="1137.54" y1="2007.51" x2="1477.7" y2="2007.51"/><line class="cls-1" x1="3291.87" y1="1958.17" x2="3291.87" y2="1958.74"/><line class="cls-1" x1="684" y1="477.35" x2="684" y2="91.84"/><line class="cls-1" x1="3291.87" y1="1951.37" x2="3291.87" y2="1958.17"/><polyline class="cls-1" points="199.28 378.71 199.28 91.84 661.89 91.84"/><line class="cls-1" x1="187.09" y1="2005.8" x2="109.7" y2="2005.8"/><line class="cls-1" x1="555.59" y1="2003.65" x2="555.59" y2="2005.8"/><line class="cls-1" x1="555.59" y1="1903.75" x2="555.59" y2="1992.32"/><line class="cls-1" x1="3773.76" y1="585.64" x2="3773.76" y2="585.64"/><line class="cls-1" x1="661.89" y1="404.22" x2="661.89" y2="378.71"/><line class="cls-1" x1="2044.63" y1="2007.51" x2="2384.79" y2="2007.51"/><line class="cls-1" x1="1591.08" y1="2007.51" x2="1931.24" y2="2007.51"/><polyline class="cls-1" points="199.28 1404.96 209.91 1404.96 209.91 1373.1 199.28 1373.1"/><line class="cls-1" x1="303.31" y1="1992.32" x2="303.31" y2="2003.65"/><line class="cls-1" x1="243.78" y1="1992.32" x2="243.78" y2="2003.65"/><line class="cls-1" x1="541.42" y1="1992.32" x2="541.42" y2="2003.65"/><line class="cls-1" x1="481.89" y1="1992.32" x2="481.89" y2="2003.65"/><line class="cls-1" x1="382.68" y1="1992.32" x2="382.68" y2="2003.65"/><line class="cls-1" x1="323.15" y1="1992.32" x2="323.15" y2="2003.65"/><line class="cls-1" x1="462.05" y1="1992.32" x2="462.05" y2="2003.65"/><line class="cls-1" x1="402.52" y1="1992.32" x2="402.52" y2="2003.65"/><line class="cls-1" x1="1931.24" y1="1951.37" x2="1931.24" y2="1951.37"/><line class="cls-1" x1="3291.87" y1="1951.37" x2="3291.87" y2="1951.37"/><line class="cls-1" x1="3719.9" y1="1947.02" x2="3719.9" y2="1951.27"/><line class="cls-1" x1="3430.77" y1="1947.02" x2="3430.77" y2="1951.27"/><line class="cls-1" x1="3412.91" y1="1947.02" x2="3412.91" y2="1951.27"/><line class="cls-1" x1="3737.76" y1="1947.02" x2="3737.76" y2="1951.27"/><line class="cls-1" x1="2359.27" y1="1947.02" x2="2359.27" y2="1951.37"/><line class="cls-1" x1="2070.14" y1="1947.02" x2="2070.14" y2="1951.37"/><line class="cls-1" x1="2812.82" y1="1947.02" x2="2812.82" y2="1951.27"/><line class="cls-1" x1="2523.68" y1="1947.02" x2="2523.68" y2="1951.27"/><line class="cls-1" x1="2505.82" y1="1947.02" x2="2505.82" y2="1951.27"/><line class="cls-1" x1="2830.67" y1="1947.02" x2="2830.67" y2="1951.27"/><line class="cls-1" x1="1905.73" y1="1947.02" x2="1905.73" y2="1951.27"/><line class="cls-1" x1="1616.6" y1="1947.02" x2="1616.6" y2="1951.27"/><line class="cls-1" x1="1598.74" y1="1947.02" x2="1598.74" y2="1951.27"/><line class="cls-1" x1="1923.59" y1="1947.02" x2="1923.59" y2="1951.27"/><line class="cls-1" x1="2951.71" y1="1965.46" x2="3291.87" y2="1965.46"/><line class="cls-1" x1="1470.05" y1="1951.37" x2="1470.05" y2="1965.54"/><line class="cls-1" x1="1145.2" y1="1951.37" x2="1145.2" y2="1965.54"/><line class="cls-1" x1="684" y1="2007.51" x2="1024.16" y2="2007.51"/><line class="cls-1" x1="2812.82" y1="1965.54" x2="2812.82" y2="1969.8"/><line class="cls-1" x1="2523.68" y1="1965.54" x2="2523.68" y2="1969.8"/><line class="cls-1" x1="2505.82" y1="1965.54" x2="2505.82" y2="1969.8"/><line class="cls-1" x1="2830.67" y1="1965.54" x2="2830.67" y2="1969.8"/><line class="cls-1" x1="2359.27" y1="1965.54" x2="2359.27" y2="1969.89"/><line class="cls-1" x1="2070.14" y1="1965.54" x2="2070.14" y2="1969.89"/><line class="cls-1" x1="598.11" y1="2005.8" x2="598.11" y2="2260.91"/><line class="cls-1" x1="187.09" y1="2260.91" x2="187.09" y2="2005.8"/><line class="cls-1" x1="3266.36" y1="1947.02" x2="3266.36" y2="1951.27"/><line class="cls-1" x1="2977.23" y1="1947.02" x2="2977.23" y2="1951.27"/><line class="cls-1" x1="2959.37" y1="1947.02" x2="2959.37" y2="1951.27"/><line class="cls-1" x1="3284.22" y1="1947.02" x2="3284.22" y2="1951.27"/><line class="cls-1" x1="199.28" y1="378.71" x2="199.28" y2="404.22"/><line class="cls-1" x1="661.89" y1="91.84" x2="661.89" y2="378.71"/><line class="cls-1" x1="684" y1="91.84" x2="661.89" y2="91.84"/><line class="cls-1" x1="661.89" y1="477.35" x2="684" y2="477.35"/><line class="cls-1" x1="661.89" y1="404.22" x2="661.89" y2="477.35"/><line class="cls-1" x1="3266.36" y1="1965.54" x2="3266.36" y2="1969.8"/><line class="cls-1" x1="2977.23" y1="1965.54" x2="2977.23" y2="1969.8"/><line class="cls-1" x1="2959.37" y1="1965.54" x2="2959.37" y2="1969.8"/><line class="cls-1" x1="3284.22" y1="1965.54" x2="3284.22" y2="1969.8"/><line class="cls-1" x1="3284.22" y1="1951.37" x2="3284.22" y2="1965.54"/><line class="cls-1" x1="2959.37" y1="1951.37" x2="2959.37" y2="1965.54"/><line class="cls-1" x1="3719.9" y1="1965.54" x2="3719.9" y2="1969.8"/><line class="cls-1" x1="3430.77" y1="1965.54" x2="3430.77" y2="1969.8"/><line class="cls-1" x1="3412.91" y1="1965.54" x2="3412.91" y2="1969.8"/><line class="cls-1" x1="3737.76" y1="1965.54" x2="3737.76" y2="1969.8"/><line class="cls-1" x1="1452.19" y1="1965.54" x2="1452.19" y2="1969.8"/><line class="cls-1" x1="1163.05" y1="1965.54" x2="1163.05" y2="1969.8"/><line class="cls-1" x1="1145.2" y1="1965.54" x2="1145.2" y2="1969.8"/><line class="cls-1" x1="1470.05" y1="1965.54" x2="1470.05" y2="1969.8"/><line class="cls-1" x1="2384.79" y1="1951.37" x2="2384.79" y2="1951.37"/><line class="cls-1" x1="447.02" y1="404.22" x2="447.02" y2="378.71"/><line class="cls-1" x1="998.65" y1="1965.54" x2="998.65" y2="1969.8"/><line class="cls-1" x1="691.65" y1="1965.54" x2="691.65" y2="1969.8"/><line class="cls-1" x1="1016.5" y1="1965.54" x2="1016.5" y2="1969.8"/><line class="cls-1" x1="508.82" y1="1988.06" x2="508.82" y2="1990.9"/><line class="cls-1" x1="534.33" y1="1988.06" x2="508.82" y2="1988.06"/><line class="cls-1" x1="534.33" y1="1988.06" x2="534.33" y2="1990.9"/><line class="cls-1" x1="2498.17" y1="2007.51" x2="2838.33" y2="2007.51"/><line class="cls-1" x1="2951.71" y1="2007.51" x2="3291.87" y2="2007.51"/><line class="cls-1" x1="534.33" y1="2005.8" x2="598.11" y2="2005.8"/><polyline class="cls-1" points="3306.05 503.72 3306.05 657.92 1486.2 657.92 1486.2 353.2 684 353.2"/><line class="cls-1" x1="709.51" y1="1965.54" x2="709.51" y2="1969.8"/><line class="cls-1" x1="709.51" y1="1947.02" x2="709.51" y2="1951.27"/><polyline class="cls-1" points="684 1762.87 661.89 1762.87 661.89 1903.75"/><line class="cls-1" x1="2498.17" y1="2005.8" x2="2498.17" y2="2005.8"/><line class="cls-1" x1="2044.63" y1="2005.8" x2="2044.63" y2="2005.8"/><line class="cls-1" x1="684" y1="2005.8" x2="684" y2="2005.8"/><line class="cls-1" x1="229.61" y1="2005.8" x2="229.61" y2="1903.75"/><line class="cls-1" x1="1016.5" y1="1951.27" x2="691.65" y2="1951.27"/><line class="cls-1" x1="1016.5" y1="1947.02" x2="691.65" y2="1947.02"/><line class="cls-1" x1="3745.42" y1="2005.8" x2="3745.42" y2="2007.51"/><line class="cls-1" x1="3405.26" y1="2005.8" x2="3405.26" y2="2007.51"/><line class="cls-1" x1="3745.42" y1="1965.54" x2="3745.42" y2="2005.8"/><line class="cls-1" x1="3405.26" y1="1965.54" x2="3405.26" y2="2005.8"/><line class="cls-1" x1="3745.42" y1="1965.54" x2="3405.26" y2="1965.54"/><line class="cls-1" x1="3405.26" y1="1951.37" x2="3405.26" y2="1965.54"/><line class="cls-1" x1="3745.42" y1="1951.37" x2="3405.26" y2="1951.37"/><line class="cls-1" x1="3745.42" y1="1951.37" x2="3745.42" y2="1965.54"/><line class="cls-1" x1="661.89" y1="864.28" x2="661.89" y2="1062.71"/><line class="cls-1" x1="1470.05" y1="1951.27" x2="1145.2" y2="1951.27"/><line class="cls-1" x1="1470.05" y1="1947.02" x2="1145.2" y2="1947.02"/><line class="cls-1" x1="1931.24" y1="1965.54" x2="1591.08" y2="1965.54"/><line class="cls-1" x1="1591.08" y1="1951.37" x2="1591.08" y2="1965.54"/><line class="cls-1" x1="1931.24" y1="1951.37" x2="1591.08" y2="1951.37"/><line class="cls-1" x1="1931.24" y1="1951.37" x2="1931.24" y2="1965.54"/><polyline class="cls-1" points="3405.26 1951.37 3405.26 1903.75 3291.87 1903.75 3291.87 1977.35 3405.26 1977.35"/><line class="cls-1" x1="2838.33" y1="1965.54" x2="2498.17" y2="1965.54"/><line class="cls-1" x1="2498.17" y1="1951.37" x2="2498.17" y2="1965.54"/><line class="cls-1" x1="2838.33" y1="1951.37" x2="2498.17" y2="1951.37"/><line class="cls-1" x1="2838.33" y1="1951.37" x2="2838.33" y2="1965.54"/><text class="cls-2" transform="translate(77.68 1083.31) rotate(-90)"><tspan class="cls-4" x="0" y="0">6</tspan><tspan x="31.14" y="0">.4 m</tspan></text><text class="cls-2" transform="translate(1899.71 2097.35)"><tspan x="0" y="0">12</tspan><tspan class="cls-3" x="56.55" y="0">.</tspan><tspan x="70.78" y="0">6 m</tspan></text><text class="cls-2" transform="translate(1909.51 1034.73)"><tspan class="cls-5" x="0" y="0">7</tspan><tspan x="32.47" y="0">7 m</tspan></text><text class="cls-2" transform="translate(2038.59 1015.85) scale(.58)"><tspan x="0" y="0">2</tspan></text><text class="cls-2" transform="translate(383.16 256.14)"><tspan x="0" y="0">WC</tspan></text></svg>