<?xml version="1.0" encoding="UTF-8"?><svg id="ELEVATIONS" xmlns="http://www.w3.org/2000/svg" viewBox="0 0 4535.43 2551.18"><defs><style>.cls-1{fill:none;stroke:#000;stroke-linecap:round;stroke-linejoin:round;stroke-width:2.83px;}</style></defs><g id="EAST"><line class="cls-1" x1="3674.55" y1="1588.96" x2="4057.23" y2="1588.96"/><line class="cls-1" x1="393.17" y1="1588.96" x2="393.17" y2="877.18"/><line class="cls-1" x1="4142.27" y1="1588.96" x2="4142.27" y2="877.18"/><line class="cls-1" x1="478.21" y1="1588.96" x2="478.21" y2="877.18"/><line class="cls-1" x1="4057.23" y1="1588.96" x2="4057.23" y2="877.18"/><line class="cls-1" x1="393.17" y1="1674" x2="3674.55" y2="1674"/><line class="cls-1" x1="393.17" y1="1674" x2="3674.55" y2="1674"/><line class="cls-1" x1="393.17" y1="1588.96" x2="393.17" y2="1674"/><line class="cls-1" x1="393.17" y1="1588.96" x2="393.17" y2="1674"/><line class="cls-1" x1="4142.27" y1="1588.96" x2="4142.27" y2="1674"/><line class="cls-1" x1="4142.27" y1="1588.96" x2="4142.27" y2="1674"/><line class="cls-1" x1="3674.55" y1="1674" x2="4142.27" y2="1674"/><line class="cls-1" x1="3674.55" y1="1674" x2="4142.27" y2="1674"/><line class="cls-1" x1="3589.51" y1="1588.96" x2="3589.51" y2="877.18"/><line class="cls-1" x1="967.47" y1="1588.96" x2="967.47" y2="877.18"/><line class="cls-1" x1="945.36" y1="1588.96" x2="945.36" y2="877.18"/><line class="cls-1" x1="1769.67" y1="967.89" x2="1769.67" y2="877.18"/><line class="cls-1" x1="4142.27" y1="877.18" x2="3674.55" y2="877.18"/><line class="cls-1" x1="4142.27" y1="877.18" x2="3674.55" y2="877.18"/><line class="cls-1" x1="3674.55" y1="877.18" x2="393.17" y2="877.18"/><line class="cls-1" x1="3674.55" y1="877.18" x2="393.17" y2="877.18"/><line class="cls-1" x1="478.21" y1="1588.96" x2="3674.55" y2="1588.96"/><line class="cls-1" x1="3589.51" y1="967.89" x2="967.47" y2="967.89"/></g></svg>