<?xml version="1.0" encoding="UTF-8"?><svg id="ELEVATIONS" xmlns="http://www.w3.org/2000/svg" viewBox="0 0 4535.43 2551.18"><defs><style>.cls-1{stroke:#000;}.cls-1,.cls-2{fill:none;stroke-linecap:round;stroke-linejoin:round;stroke-width:2.83px;}.cls-2{stroke:#7f7f7f;}</style></defs><g id="NORTH"><rect class="cls-1" x="1461.37" y="1265.81" width="396.85" height="252.28"/><line class="cls-2" x1="3267.21" y1="1588.96" x2="3267.21" y2="877.18"/><line class="cls-2" x1="3267.21" y1="1588.96" x2="3267.21" y2="877.18"/><line class="cls-1" x1="3182.17" y1="1588.96" x2="3182.17" y2="877.18"/><line class="cls-1" x1="1370.27" y1="909.21" x2="1268.22" y2="909.21"/><line class="cls-1" x1="1370.27" y1="1301.24" x2="1268.22" y2="1301.24"/><line class="cls-1" x1="1370.27" y1="1588.96" x2="1370.27" y2="877.18"/><line class="cls-1" x1="2796.66" y1="1588.96" x2="2796.66" y2="877.18"/><line class="cls-1" x1="2211.31" y1="1588.96" x2="2211.31" y2="877.18"/><line class="cls-1" x1="2438.08" y1="1588.96" x2="2438.08" y2="877.18"/><line class="cls-1" x1="2920.82" y1="967.89" x2="2920.82" y2="877.18"/><line class="cls-1" x1="1268.22" y1="1588.96" x2="1268.22" y2="877.18"/><line class="cls-1" x1="1268.22" y1="1588.96" x2="1268.22" y2="877.18"/><line class="cls-1" x1="1268.22" y1="1588.96" x2="2855.34" y2="1588.96"/><line class="cls-1" x1="1268.22" y1="877.18" x2="2855.34" y2="877.18"/><line class="cls-1" x1="1268.22" y1="877.18" x2="2855.34" y2="877.18"/><line class="cls-1" x1="2855.34" y1="877.18" x2="3267.21" y2="877.18"/><line class="cls-1" x1="2855.34" y1="877.18" x2="3267.21" y2="877.18"/><line class="cls-1" x1="2920.82" y1="967.89" x2="3182.17" y2="967.89"/><rect class="cls-1" x="1761.37" y="1001.56" width="88.41" height="119.45"/><line class="cls-1" x1="1869.05" y1="1083.9" x2="1900.91" y2="1083.9"/><line class="cls-1" x1="1869.05" y1="1588.96" x2="1869.05" y2="1083.9"/><line class="cls-1" x1="1900.91" y1="1588.96" x2="1900.91" y2="1083.9"/><line class="cls-1" x1="2796.66" y1="942.66" x2="2438.08" y2="942.66"/><line class="cls-1" x1="1322.65" y1="1588.96" x2="1322.65" y2="1301.24"/><line class="cls-1" x1="2855.34" y1="1588.96" x2="3182.17" y2="1588.96"/><line class="cls-1" x1="1268.22" y1="1588.96" x2="1268.22" y2="1674"/><line class="cls-1" x1="3267.21" y1="1588.96" x2="3267.21" y2="1674"/><line class="cls-1" x1="3267.21" y1="1674" x2="1268.22" y2="1674"/></g></svg>