<?xml version="1.0" encoding="UTF-8"?><svg id="ELEVATIONS" xmlns="http://www.w3.org/2000/svg" viewBox="0 0 4535.43 2551.18"><defs><style>.cls-1{fill:none;stroke:#000;stroke-linecap:round;stroke-linejoin:round;stroke-width:2.83px;}</style></defs><g id="SOUTH"><line class="cls-1" x1="482.74" y1="1588.96" x2="482.74" y2="877.18"/><rect class="cls-1" x="3688.72" y="897.02" width="340.16" height="691.94"/><rect class="cls-1" x="3235.18" y="897.02" width="340.16" height="691.94"/><rect class="cls-1" x="2781.64" y="897.02" width="340.16" height="691.94"/><rect class="cls-1" x="2328.09" y="897.02" width="340.16" height="691.94"/><rect class="cls-1" x="2328.09" y="897.02" width="340.16" height="691.94"/><rect class="cls-1" x="1874.55" y="897.02" width="340.16" height="691.94"/><rect class="cls-1" x="1421.01" y="897.02" width="340.16" height="691.94"/><rect class="cls-1" x="967.47" y="897.02" width="340.16" height="691.94"/><rect class="cls-1" x="513.07" y="897.02" width="325.98" height="691.94"/><line class="cls-1" x1="482.74" y1="897.02" x2="4057.23" y2="897.02"/><line class="cls-1" x1="967.47" y1="1588.96" x2="967.47" y2="897.02"/><line class="cls-1" x1="945.36" y1="1588.96" x2="945.36" y2="897.02"/><line class="cls-1" x1="513.07" y1="1588.96" x2="513.07" y2="897.02"/><line class="cls-1" x1="839.06" y1="1022.03" x2="839.06" y2="897.02"/><rect class="cls-1" x="527.25" y="911.2" width="59.53" height="79.37"/><rect class="cls-1" x="765.36" y="911.2" width="59.53" height="79.37"/><rect class="cls-1" x="606.62" y="911.2" width="59.53" height="79.37"/><rect class="cls-1" x="685.99" y="911.2" width="59.53" height="79.37"/><polyline class="cls-1" points="967.47 1339.51 967.47 1367.86 1307.62 1367.86"/><rect class="cls-1" x="3688.72" y="897.02" width="340.16" height="436.82"/><rect class="cls-1" x="3714.24" y="1035.35" width="289.13" height="274.96"/><rect class="cls-1" x="3696.38" y="1017.5" width="324.85" height="310.68"/><rect class="cls-1" x="3714.24" y="920.55" width="289.13" height="72.28"/><rect class="cls-1" x="3696.38" y="902.69" width="324.85" height="108"/><rect class="cls-1" x="3235.18" y="897.02" width="340.16" height="436.82"/><rect class="cls-1" x="3260.69" y="1035.35" width="289.13" height="274.96"/><rect class="cls-1" x="3242.83" y="1017.5" width="324.85" height="310.68"/><rect class="cls-1" x="3260.69" y="920.55" width="289.13" height="72.28"/><rect class="cls-1" x="3242.83" y="902.69" width="324.85" height="108"/><rect class="cls-1" x="2781.64" y="897.02" width="340.16" height="436.82"/><rect class="cls-1" x="2807.15" y="1035.35" width="289.13" height="274.96"/><rect class="cls-1" x="2789.29" y="1017.5" width="324.85" height="310.68"/><rect class="cls-1" x="2807.15" y="920.55" width="289.13" height="72.28"/><rect class="cls-1" x="2789.29" y="902.69" width="324.85" height="108"/><rect class="cls-1" x="2328.09" y="897.02" width="340.16" height="436.82"/><rect class="cls-1" x="2353.6" y="1035.35" width="289.13" height="274.96"/><rect class="cls-1" x="2335.75" y="1017.5" width="324.85" height="310.68"/><rect class="cls-1" x="2353.6" y="920.55" width="289.13" height="72.28"/><rect class="cls-1" x="2335.75" y="902.69" width="324.85" height="108"/><rect class="cls-1" x="1874.55" y="897.02" width="340.16" height="436.82"/><rect class="cls-1" x="1900.06" y="1035.35" width="289.13" height="274.96"/><rect class="cls-1" x="1882.2" y="1017.5" width="324.85" height="310.68"/><rect class="cls-1" x="1900.06" y="920.55" width="289.13" height="72.28"/><rect class="cls-1" x="1882.2" y="902.69" width="324.85" height="108"/><rect class="cls-1" x="1421.01" y="897.02" width="340.16" height="436.82"/><rect class="cls-1" x="1446.52" y="1035.35" width="289.13" height="274.96"/><rect class="cls-1" x="1428.66" y="1017.5" width="324.85" height="310.68"/><rect class="cls-1" x="1446.52" y="920.55" width="289.13" height="72.28"/><rect class="cls-1" x="1428.66" y="902.69" width="324.85" height="108"/><line class="cls-1" x1="4057.23" y1="1588.96" x2="4057.23" y2="877.18"/><rect class="cls-1" x="967.47" y="897.02" width="340.16" height="436.82"/><rect class="cls-1" x="992.98" y="1035.35" width="289.13" height="274.96"/><rect class="cls-1" x="975.12" y="1017.5" width="324.85" height="310.68"/><rect class="cls-1" x="992.98" y="920.55" width="289.13" height="72.28"/><rect class="cls-1" x="975.12" y="902.69" width="324.85" height="108"/><line class="cls-1" x1="3235.18" y1="1333.84" x2="3235.18" y2="1458.57"/><line class="cls-1" x1="3121.79" y1="1333.84" x2="3121.79" y2="1458.57"/><line class="cls-1" x1="2781.64" y1="1333.84" x2="2781.64" y2="1458.57"/><line class="cls-1" x1="2668.25" y1="1333.84" x2="2668.25" y2="1458.57"/><line class="cls-1" x1="2328.09" y1="1333.84" x2="2328.09" y2="1458.57"/><line class="cls-1" x1="2214.71" y1="1333.84" x2="2214.71" y2="1458.57"/><line class="cls-1" x1="1874.55" y1="1333.84" x2="1874.55" y2="1458.57"/><line class="cls-1" x1="1761.16" y1="1333.84" x2="1761.16" y2="1458.57"/><line class="cls-1" x1="1421.01" y1="1333.84" x2="1421.01" y2="1458.57"/><line class="cls-1" x1="1307.62" y1="1333.84" x2="1307.62" y2="1458.57"/><line class="cls-1" x1="3575.34" y1="1333.84" x2="3575.34" y2="1458.57"/><line class="cls-1" x1="4028.88" y1="1333.84" x2="4028.88" y2="1588.96"/><line class="cls-1" x1="3688.72" y1="1333.84" x2="3688.72" y2="1458.57"/><line class="cls-1" x1="3688.72" y1="1367.86" x2="4028.88" y2="1367.86"/><line class="cls-1" x1="3575.34" y1="1339.51" x2="3235.18" y2="1339.51"/><polyline class="cls-1" points="4028.88 1333.84 4028.88 1339.51 3688.72 1339.51"/><line class="cls-1" x1="3235.18" y1="1367.86" x2="3575.34" y2="1367.86"/><line class="cls-1" x1="3121.79" y1="1339.51" x2="2781.64" y2="1339.51"/><line class="cls-1" x1="2781.64" y1="1367.86" x2="3121.79" y2="1367.86"/><line class="cls-1" x1="2668.25" y1="1339.51" x2="2328.09" y2="1339.51"/><line class="cls-1" x1="2328.09" y1="1367.86" x2="2668.25" y2="1367.86"/><line class="cls-1" x1="2214.71" y1="1339.51" x2="1874.55" y2="1339.51"/><line class="cls-1" x1="1874.55" y1="1367.86" x2="2214.71" y2="1367.86"/><line class="cls-1" x1="1761.16" y1="1339.51" x2="1421.01" y2="1339.51"/><line class="cls-1" x1="1421.01" y1="1367.86" x2="1761.16" y2="1367.86"/><line class="cls-1" x1="1307.62" y1="1339.51" x2="967.47" y2="1339.51"/><line class="cls-1" x1="482.74" y1="1588.96" x2="4057.23" y2="1588.96"/><line class="cls-1" x1="482.74" y1="877.18" x2="4057.23" y2="877.18"/><line class="cls-1" x1="482.74" y1="877.18" x2="393.17" y2="877.18"/><line class="cls-1" x1="4057.23" y1="877.18" x2="4142.27" y2="877.18"/><line class="cls-1" x1="393.17" y1="1674" x2="393.17" y2="877.18"/><line class="cls-1" x1="4142.27" y1="1674" x2="4142.27" y2="877.18"/><line class="cls-1" x1="4142.27" y1="1674" x2="393.17" y2="1674"/><line class="cls-1" x1="967.47" y1="1588.96" x2="967.47" y2="1481.24"/><line class="cls-1" x1="967.47" y1="1466.13" x2="967.47" y2="1458.57"/><line class="cls-1" x1="1421.01" y1="1466.13" x2="1421.01" y2="1473.69"/><path class="cls-1" d="M1303.84,1458.57c-1,0-1.96.4-2.67,1.11-.71.71-1.11,1.67-1.11,2.67s.4,1.96,1.11,2.67c.71.71,1.67,1.11,2.67,1.11h120.94c1,0,1.96-.4,2.67-1.11.71-.71,1.11-1.67,1.11-2.67s-.4-1.96-1.11-2.67c-.71-.71-1.67-1.11-2.67-1.11h-120.94Z"/><path class="cls-1" d="M1303.84,1473.69c-1,0-1.96.4-2.67,1.11-.71.71-1.11,1.67-1.11,2.67s.4,1.96,1.11,2.67c.71.71,1.67,1.11,2.67,1.11h120.94c1,0,1.96-.4,2.67-1.11s1.11-1.67,1.11-2.67-.4-1.96-1.11-2.67c-.71-.71-1.67-1.11-2.67-1.11h-120.94Z"/><path class="cls-1" d="M1757.39,1458.57c-1,0-1.96.4-2.67,1.11s-1.11,1.67-1.11,2.67.4,1.96,1.11,2.67c.71.71,1.67,1.11,2.67,1.11h120.94c1,0,1.96-.4,2.67-1.11s1.11-1.67,1.11-2.67c0-1-.4-1.96-1.11-2.67s-1.67-1.11-2.67-1.11h-120.94Z"/><path class="cls-1" d="M1757.39,1473.69c-1,0-1.96.4-2.67,1.11s-1.11,1.67-1.11,2.67.4,1.96,1.11,2.67c.71.71,1.67,1.11,2.67,1.11h120.94c1,0,1.96-.4,2.67-1.11.71-.71,1.11-1.67,1.11-2.67s-.4-1.96-1.11-2.67-1.67-1.11-2.67-1.11h-120.94Z"/><path class="cls-1" d="M2210.93,1458.57c-1,0-1.96.4-2.67,1.11-.71.71-1.11,1.67-1.11,2.67s.4,1.96,1.11,2.67c.71.71,1.67,1.11,2.67,1.11h120.94c1,0,1.96-.4,2.67-1.11.71-.71,1.11-1.67,1.11-2.67s-.4-1.96-1.11-2.67c-.71-.71-1.67-1.11-2.67-1.11h-120.94Z"/><path class="cls-1" d="M2210.93,1473.69c-1,0-1.96.4-2.67,1.11-.71.71-1.11,1.67-1.11,2.67s.4,1.96,1.11,2.67c.71.71,1.67,1.11,2.67,1.11h120.94c1,0,1.96-.4,2.67-1.11s1.11-1.67,1.11-2.67-.4-1.96-1.11-2.67c-.71-.71-1.67-1.11-2.67-1.11h-120.94Z"/><path class="cls-1" d="M2664.47,1458.57c-1,0-1.96.4-2.67,1.11-.71.71-1.11,1.67-1.11,2.67s.4,1.96,1.11,2.67c.71.71,1.67,1.11,2.67,1.11h120.94c1,0,1.96-.4,2.67-1.11.71-.71,1.11-1.67,1.11-2.67s-.4-1.96-1.11-2.67c-.71-.71-1.67-1.11-2.67-1.11h-120.94Z"/><path class="cls-1" d="M2664.47,1473.69c-1,0-1.96.4-2.67,1.11-.71.71-1.11,1.67-1.11,2.67s.4,1.96,1.11,2.67c.71.71,1.67,1.11,2.67,1.11h120.94c1,0,1.96-.4,2.67-1.11s1.11-1.67,1.11-2.67-.4-1.96-1.11-2.67c-.71-.71-1.67-1.11-2.67-1.11h-120.94Z"/><path class="cls-1" d="M3118.01,1458.57c-1,0-1.96.4-2.67,1.11-.71.71-1.11,1.67-1.11,2.67s.4,1.96,1.11,2.67c.71.71,1.67,1.11,2.67,1.11h120.94c1,0,1.96-.4,2.67-1.11.71-.71,1.11-1.67,1.11-2.67s-.4-1.96-1.11-2.67c-.71-.71-1.67-1.11-2.67-1.11h-120.94Z"/><path class="cls-1" d="M3118.01,1473.69c-1,0-1.96.4-2.67,1.11-.71.71-1.11,1.67-1.11,2.67s.4,1.96,1.11,2.67c.71.71,1.67,1.11,2.67,1.11h120.94c1,0,1.96-.4,2.67-1.11s1.11-1.67,1.11-2.67-.4-1.96-1.11-2.67c-.71-.71-1.67-1.11-2.67-1.11h-120.94Z"/><path class="cls-1" d="M3571.56,1458.57c-1,0-1.96.4-2.67,1.11-.71.71-1.11,1.67-1.11,2.67s.4,1.96,1.11,2.67c.71.71,1.67,1.11,2.67,1.11h120.94c1,0,1.96-.4,2.67-1.11.71-.71,1.11-1.67,1.11-2.67s-.4-1.96-1.11-2.67c-.71-.71-1.67-1.11-2.67-1.11h-120.94Z"/><path class="cls-1" d="M3571.56,1473.69c-1,0-1.96.4-2.67,1.11-.71.71-1.11,1.67-1.11,2.67s.4,1.96,1.11,2.67c.71.71,1.67,1.11,2.67,1.11h120.94c1,0,1.96-.4,2.67-1.11s1.11-1.67,1.11-2.67-.4-1.96-1.11-2.67c-.71-.71-1.67-1.11-2.67-1.11h-120.94Z"/><line class="cls-1" x1="3688.72" y1="1569.12" x2="4028.88" y2="1569.12"/><line class="cls-1" x1="3688.72" y1="1481.24" x2="3688.72" y2="1588.96"/><line class="cls-1" x1="3688.72" y1="1466.13" x2="3688.72" y2="1473.69"/><line class="cls-1" x1="3235.18" y1="1569.12" x2="3575.34" y2="1569.12"/><line class="cls-1" x1="3235.18" y1="1481.24" x2="3235.18" y2="1588.96"/><line class="cls-1" x1="2781.64" y1="1569.12" x2="3121.79" y2="1569.12"/><line class="cls-1" x1="2781.64" y1="1481.24" x2="2781.64" y2="1588.96"/><line class="cls-1" x1="3121.79" y1="1481.24" x2="3121.79" y2="1588.96"/><line class="cls-1" x1="3121.79" y1="1466.13" x2="3121.79" y2="1473.69"/><line class="cls-1" x1="3575.34" y1="1481.24" x2="3575.34" y2="1588.96"/><line class="cls-1" x1="3575.34" y1="1466.13" x2="3575.34" y2="1473.69"/><line class="cls-1" x1="3235.18" y1="1466.13" x2="3235.18" y2="1473.69"/><line class="cls-1" x1="2781.64" y1="1466.13" x2="2781.64" y2="1473.69"/><line class="cls-1" x1="2328.09" y1="1569.12" x2="2668.25" y2="1569.12"/><line class="cls-1" x1="2328.09" y1="1481.24" x2="2328.09" y2="1588.96"/><line class="cls-1" x1="2668.25" y1="1481.24" x2="2668.25" y2="1588.96"/><line class="cls-1" x1="2668.25" y1="1466.13" x2="2668.25" y2="1473.69"/><line class="cls-1" x1="2328.09" y1="1466.13" x2="2328.09" y2="1473.69"/><line class="cls-1" x1="1874.55" y1="1569.12" x2="2214.71" y2="1569.12"/><line class="cls-1" x1="1874.55" y1="1481.24" x2="1874.55" y2="1588.96"/><line class="cls-1" x1="2214.71" y1="1481.24" x2="2214.71" y2="1588.96"/><line class="cls-1" x1="2214.71" y1="1466.13" x2="2214.71" y2="1473.69"/><line class="cls-1" x1="1874.55" y1="1466.13" x2="1874.55" y2="1473.69"/><line class="cls-1" x1="1421.01" y1="1569.12" x2="1761.16" y2="1569.12"/><line class="cls-1" x1="1421.01" y1="1481.24" x2="1421.01" y2="1588.96"/><line class="cls-1" x1="1761.16" y1="1481.24" x2="1761.16" y2="1588.96"/><line class="cls-1" x1="1761.16" y1="1466.13" x2="1761.16" y2="1473.69"/><line class="cls-1" x1="967.47" y1="1569.12" x2="1307.62" y2="1569.12"/><line class="cls-1" x1="967.47" y1="1481.24" x2="967.47" y2="1588.96"/><line class="cls-1" x1="967.47" y1="1326.76" x2="967.47" y2="1458.57"/><line class="cls-1" x1="1307.62" y1="1481.24" x2="1307.62" y2="1588.96"/><line class="cls-1" x1="1307.62" y1="1466.13" x2="1307.62" y2="1473.69"/><line class="cls-1" x1="967.47" y1="1466.13" x2="967.47" y2="1473.69"/><line class="cls-1" x1="971.25" y1="1458.57" x2="967.47" y2="1458.57"/><line class="cls-1" x1="971.25" y1="1466.13" x2="967.47" y2="1466.13"/><line class="cls-1" x1="971.25" y1="1473.69" x2="967.47" y2="1473.69"/><line class="cls-1" x1="971.25" y1="1481.24" x2="967.47" y2="1481.24"/><line class="cls-1" x1="967.47" y1="1462.35" x2="967.47" y2="1462.35"/><path class="cls-1" d="M971.25,1466.13c1,0,1.96-.4,2.67-1.11.71-.71,1.11-1.67,1.11-2.67s-.4-1.96-1.11-2.67-1.67-1.11-2.67-1.11"/><line class="cls-1" x1="967.47" y1="1477.46" x2="967.47" y2="1477.46"/><path class="cls-1" d="M971.25,1481.24c1,0,1.96-.4,2.67-1.11.71-.71,1.11-1.67,1.11-2.67s-.4-1.96-1.11-2.67-1.67-1.11-2.67-1.11"/><rect class="cls-1" x="513.07" y="1008.43" width="325.98" height="580.53"/><rect class="cls-1" x="555.59" y="1333.84" width="240.94" height="212.6"/><rect class="cls-1" x="555.59" y="1050.95" width="240.94" height="240.38"/><path class="cls-1" d="M824.88,1291.32c0-.89-.17-1.78-.5-2.61-.36-.9-.89-1.72-1.58-2.4-.68-.68-1.5-1.22-2.4-1.58-.83-.33-1.72-.5-2.61-.5s-1.78.17-2.61.5c-.9.36-1.72.89-2.4,1.58-.68.68-1.22,1.5-1.58,2.4-.33.83-.5,1.71-.5,2.61s.17,1.78.5,2.61c.36.9.89,1.72,1.58,2.4s1.5,1.22,2.4,1.58c.83.33,1.72.5,2.61.5s1.78-.17,2.61-.5c.9-.36,1.72-.89,2.4-1.58.68-.68,1.22-1.5,1.58-2.4.33-.83.5-1.71.5-2.61Z"/><path class="cls-1" d="M824.88,1319.67c0-.89-.17-1.78-.5-2.61-.36-.9-.89-1.72-1.58-2.4-.68-.68-1.5-1.22-2.4-1.58-.83-.33-1.72-.5-2.61-.5s-1.78.17-2.61.5c-.9.36-1.72.89-2.4,1.58-.68.68-1.22,1.5-1.58,2.4-.33.83-.5,1.71-.5,2.61s.17,1.78.5,2.61c.36.9.89,1.72,1.58,2.4.69.68,1.5,1.22,2.4,1.58.83.33,1.72.5,2.61.5s1.78-.17,2.61-.5c.9-.36,1.72-.89,2.4-1.58s1.22-1.5,1.58-2.4c.33-.83.5-1.71.5-2.61Z"/><rect class="cls-1" x="792.28" y="1317.54" width="25.51" height="4.25"/></g></svg>