<?xml version="1.0" encoding="UTF-8"?><svg id="Elevations" xmlns="http://www.w3.org/2000/svg" viewBox="0 0 3970.18 2340.14"><defs><style>.cls-1{fill:none;stroke:#000;stroke-linecap:round;stroke-linejoin:round;stroke-width:2.83px;}</style></defs><line class="cls-1" x1="3746.26" y1="1897.44" x2="3746.26" y2="1971.04"/><line class="cls-1" x1="2385.62" y1="1959.23" x2="2045.47" y2="1959.23"/><line class="cls-1" x1="2045.47" y1="1945.06" x2="2045.47" y2="1959.23"/><line class="cls-1" x1="2385.62" y1="1945.06" x2="2045.47" y2="1945.06"/><line class="cls-1" x1="2385.62" y1="1945.06" x2="2385.62" y2="1959.23"/><line class="cls-1" x1="200.11" y1="1897.44" x2="3774.6" y2="1897.44"/><polyline class="cls-1" points="2499.01 1945.06 2499.01 1897.44 2385.62 1897.44 2385.62 1971.04 2499.01 1971.04"/><line class="cls-1" x1="2952.55" y1="1945.06" x2="2952.55" y2="1897.44"/><polyline class="cls-1" points="2839.17 1897.44 2839.17 1971.04 2952.55 1971.04"/><line class="cls-1" x1="1025" y1="1959.23" x2="684.84" y2="1959.23"/><line class="cls-1" x1="684.84" y1="1945.06" x2="684.84" y2="1959.23"/><line class="cls-1" x1="1025" y1="1945.06" x2="684.84" y2="1945.06"/><line class="cls-1" x1="1025" y1="1945.06" x2="1025" y2="1959.23"/><line class="cls-1" x1="509.66" y1="1998.76" x2="509.66" y2="2001.6"/><line class="cls-1" x1="535.17" y1="1998.76" x2="535.17" y2="2001.6"/><polyline class="cls-1" points="1138.38 1945.06 1138.38 1897.54 1025 1897.54 1025 1945.06"/><line class="cls-1" x1="1924.43" y1="1963.49" x2="1599.58" y2="1963.49"/><line class="cls-1" x1="1478.54" y1="1999.49" x2="1478.54" y2="2001.2"/><line class="cls-1" x1="1138.38" y1="1999.49" x2="1138.38" y2="2001.2"/><line class="cls-1" x1="1478.54" y1="1959.23" x2="1478.54" y2="1999.49"/><line class="cls-1" x1="1138.38" y1="1959.23" x2="1138.38" y2="1999.49"/><polyline class="cls-1" points="1932.08 1897.44 1932.08 1971.04 2045.47 1971.04"/><line class="cls-1" x1="1932.08" y1="1952.43" x2="1591.92" y2="1952.43"/><line class="cls-1" x1="1932.08" y1="1951.86" x2="1591.92" y2="1951.86"/><line class="cls-1" x1="3746.26" y1="1897.44" x2="3774.6" y2="1897.44"/><polyline class="cls-1" points="684.84 85.53 3306.88 85.53 3306.88 497.41 3774.6 497.41 3774.6 1897.44"/><line class="cls-1" x1="200.11" y1="1897.44" x2="200.11" y2="857.97"/><line class="cls-1" x1="2385.62" y1="1999.49" x2="2385.62" y2="2001.2"/><line class="cls-1" x1="2045.47" y1="1999.49" x2="2045.47" y2="2001.2"/><line class="cls-1" x1="2385.62" y1="1959.23" x2="2385.62" y2="1999.49"/><line class="cls-1" x1="2045.47" y1="1959.23" x2="2045.47" y2="1999.49"/><line class="cls-1" x1="1932.08" y1="1999.49" x2="1932.08" y2="2001.2"/><line class="cls-1" x1="1591.92" y1="1999.49" x2="1591.92" y2="2001.2"/><line class="cls-1" x1="1932.08" y1="1959.23" x2="1932.08" y2="1999.49"/><line class="cls-1" x1="1591.92" y1="1959.23" x2="1591.92" y2="1999.49"/><line class="cls-1" x1="556.43" y1="1997.34" x2="230.45" y2="1997.34"/><line class="cls-1" x1="230.45" y1="1986.01" x2="230.45" y2="1997.34"/><line class="cls-1" x1="556.43" y1="1986.01" x2="230.45" y2="1986.01"/><line class="cls-1" x1="556.43" y1="1986.01" x2="556.43" y2="1997.34"/><line class="cls-1" x1="2839.17" y1="1952.43" x2="2499.01" y2="1952.43"/><line class="cls-1" x1="2839.17" y1="1951.86" x2="2499.01" y2="1951.86"/><line class="cls-1" x1="2385.62" y1="1952.43" x2="2045.47" y2="1952.43"/><line class="cls-1" x1="2385.62" y1="1951.86" x2="2045.47" y2="1951.86"/><line class="cls-1" x1="1025" y1="1952.43" x2="684.84" y2="1952.43"/><line class="cls-1" x1="1025" y1="1951.86" x2="684.84" y2="1951.86"/><path class="cls-1" d="M230.45,2325.47c42.79,0,85.17-8.43,124.71-24.8,39.57-16.38,75.52-40.4,105.8-70.68,30.28-30.28,54.3-66.24,70.69-105.81,16.37-39.54,24.79-81.91,24.79-124.7"/><polyline class="cls-1" points="1591.92 1945.06 1591.92 1897.44 1478.54 1897.44 1478.54 1945.06"/><line class="cls-1" x1="684.84" y1="1945.06" x2="684.84" y2="1756.56"/><line class="cls-1" x1="3738.6" y1="1944.96" x2="3413.75" y2="1944.96"/><line class="cls-1" x1="3738.6" y1="1940.71" x2="3413.75" y2="1940.71"/><line class="cls-1" x1="2053.12" y1="1940.71" x2="2053.12" y2="1945.06"/><line class="cls-1" x1="2377.97" y1="1940.71" x2="2053.12" y2="1940.71"/><line class="cls-1" x1="2377.97" y1="1940.71" x2="2377.97" y2="1945.06"/><line class="cls-1" x1="230.45" y1="1999.49" x2="230.45" y2="2325.47"/><line class="cls-1" x1="2831.51" y1="1944.96" x2="2506.66" y2="1944.96"/><line class="cls-1" x1="2831.51" y1="1940.71" x2="2506.66" y2="1940.71"/><line class="cls-1" x1="1924.43" y1="1944.96" x2="1599.58" y2="1944.96"/><line class="cls-1" x1="1924.43" y1="1940.71" x2="1599.58" y2="1940.71"/><line class="cls-1" x1="1478.54" y1="1959.23" x2="1138.38" y2="1959.23"/><line class="cls-1" x1="1138.38" y1="1945.06" x2="1138.38" y2="1959.23"/><line class="cls-1" x1="1478.54" y1="1945.06" x2="1138.38" y2="1945.06"/><line class="cls-1" x1="1478.54" y1="1945.06" x2="1478.54" y2="1959.23"/><line class="cls-1" x1="1025" y1="1999.49" x2="1025" y2="2001.2"/><line class="cls-1" x1="684.84" y1="1999.49" x2="684.84" y2="2001.2"/><line class="cls-1" x1="1025" y1="1959.23" x2="1025" y2="1999.49"/><line class="cls-1" x1="684.84" y1="1959.23" x2="684.84" y2="1999.49"/><line class="cls-1" x1="2831.51" y1="1963.49" x2="2506.66" y2="1963.49"/><line class="cls-1" x1="2377.97" y1="1963.59" x2="2053.12" y2="1963.59"/><line class="cls-1" x1="2053.12" y1="1959.23" x2="2053.12" y2="1963.59"/><line class="cls-1" x1="2377.97" y1="1959.23" x2="2377.97" y2="1963.59"/><line class="cls-1" x1="598.95" y1="2254.6" x2="187.93" y2="2254.6"/><line class="cls-1" x1="187.93" y1="1999.49" x2="509.66" y2="1999.49"/><line class="cls-1" x1="3285.06" y1="1944.96" x2="2960.21" y2="1944.96"/><line class="cls-1" x1="3285.06" y1="1940.71" x2="2960.21" y2="1940.71"/><line class="cls-1" x1="200.11" y1="397.91" x2="662.73" y2="397.91"/><line class="cls-1" x1="662.73" y1="372.4" x2="200.11" y2="372.4"/><line class="cls-1" x1="3285.06" y1="1963.49" x2="2960.21" y2="1963.49"/><line class="cls-1" x1="3292.71" y1="1959.23" x2="2952.55" y2="1959.23"/><line class="cls-1" x1="2952.55" y1="1945.06" x2="2952.55" y2="1959.23"/><line class="cls-1" x1="3292.71" y1="1945.06" x2="2952.55" y2="1945.06"/><line class="cls-1" x1="3292.71" y1="1952.43" x2="3292.71" y2="1959.23"/><line class="cls-1" x1="3738.6" y1="1963.49" x2="3413.75" y2="1963.49"/><line class="cls-1" x1="1470.88" y1="1963.49" x2="1146.03" y2="1963.49"/><line class="cls-1" x1="1017.34" y1="1963.49" x2="692.49" y2="1963.49"/><line class="cls-1" x1="3746.25" y1="1952.43" x2="3406.1" y2="1952.43"/><line class="cls-1" x1="3746.25" y1="1951.86" x2="3406.1" y2="1951.86"/><line class="cls-1" x1="1478.54" y1="1952.43" x2="1138.38" y2="1952.43"/><line class="cls-1" x1="1478.54" y1="1951.86" x2="1138.38" y2="1951.86"/><line class="cls-1" x1="2839.17" y1="1999.49" x2="2839.17" y2="2001.2"/><line class="cls-1" x1="2499.01" y1="1999.49" x2="2499.01" y2="2001.2"/><line class="cls-1" x1="2839.17" y1="1959.23" x2="2839.17" y2="1999.49"/><line class="cls-1" x1="2499.01" y1="1959.23" x2="2499.01" y2="1999.49"/><line class="cls-1" x1="3292.71" y1="1999.49" x2="3292.71" y2="2001.2"/><line class="cls-1" x1="2952.55" y1="1999.49" x2="2952.55" y2="2001.2"/><line class="cls-1" x1="3292.71" y1="1959.23" x2="3292.71" y2="1999.49"/><line class="cls-1" x1="2952.55" y1="1959.23" x2="2952.55" y2="1999.49"/><line class="cls-1" x1="272.97" y1="1995.93" x2="272.97" y2="1997.34"/><line class="cls-1" x1="513.91" y1="1995.93" x2="272.97" y2="1995.93"/><line class="cls-1" x1="513.91" y1="1995.93" x2="513.91" y2="1997.34"/><line class="cls-1" x1="272.97" y1="1986.01" x2="272.97" y2="1987.42"/><line class="cls-1" x1="513.91" y1="1986.01" x2="513.91" y2="1987.42"/><line class="cls-1" x1="513.91" y1="1987.42" x2="272.97" y2="1987.42"/><line class="cls-1" x1="2377.97" y1="1944.96" x2="2053.12" y2="1944.96"/><line class="cls-1" x1="2377.97" y1="1963.49" x2="2053.12" y2="1963.49"/><polyline class="cls-1" points="3391.92 .49 3391.92 412.37 3859.64 412.37 3859.64 1999.49 3746.25 1999.49"/><polyline class="cls-1" points="1025 1945.06 1025 1971.14 1025 1971.14"/><polyline class="cls-1" points="1138.38 1971.14 1138.38 1971.14 1138.38 1959.23 1138.38 1945.06"/><line class="cls-1" x1="1138.38" y1="1959.16" x2="1478.54" y2="1959.16"/><line class="cls-1" x1="3292.71" y1="1952.43" x2="2952.55" y2="1952.43"/><line class="cls-1" x1="3292.71" y1="1951.86" x2="2952.55" y2="1951.86"/><line class="cls-1" x1="2045.47" y1="1959.16" x2="2385.62" y2="1959.16"/><line class="cls-1" x1="1591.92" y1="1959.16" x2="1932.08" y2="1959.16"/><line class="cls-1" x1="684.84" y1="1959.16" x2="1025" y2="1959.16"/><line class="cls-1" x1="2499.01" y1="1959.16" x2="2839.17" y2="1959.16"/><line class="cls-1" x1="110.54" y1="1999.49" x2="110.54" y2=".49"/><line class="cls-1" x1="684.84" y1="1999.49" x2="598.95" y2="1999.49"/><line class="cls-1" x1="1932.08" y1="1999.49" x2="2045.47" y2="1999.49"/><line class="cls-1" x1="2385.62" y1="1999.49" x2="2499.01" y2="1999.49"/><line class="cls-1" x1="2839.17" y1="1999.49" x2="2952.55" y2="1999.49"/><line class="cls-1" x1="3292.71" y1="1999.49" x2="3406.1" y2="1999.49"/><line class="cls-1" x1="1025" y1="1971.14" x2="1138.38" y2="1971.14"/><line class="cls-1" x1="200.11" y1="829.63" x2="200.11" y2="397.91"/><line class="cls-1" x1="509.66" y1="1999.49" x2="535.17" y2="1999.49"/><line class="cls-1" x1="1478.54" y1="1971.04" x2="1591.92" y2="1971.04"/><line class="cls-1" x1="662.73" y1="1056.4" x2="200.11" y2="1056.4"/><line class="cls-1" x1="3391.92" y1=".49" x2="110.54" y2=".49"/><line class="cls-1" x1="528.08" y1="1984.59" x2="509.66" y2="1984.59"/><line class="cls-1" x1="1138.38" y1="1959.16" x2="1138.38" y2="1959.16"/><line class="cls-1" x1="1138.38" y1="1999.49" x2="1025" y2="1999.49"/><polyline class="cls-1" points="187.93 2254.6 187.93 2339.64 598.95 2339.64 598.95 2254.6"/><line class="cls-1" x1="1478.54" y1="1999.49" x2="1591.92" y2="1999.49"/><line class="cls-1" x1="3746.25" y1="1945.06" x2="3746.26" y2="1945.06"/><line class="cls-1" x1="3406.1" y1="1959.16" x2="3746.25" y2="1959.16"/><line class="cls-1" x1="2839.17" y1="1945.06" x2="2839.17" y2="1945.06"/><line class="cls-1" x1="999.48" y1="1940.71" x2="999.48" y2="1944.96"/><line class="cls-1" x1="692.49" y1="1940.71" x2="692.49" y2="1944.96"/><line class="cls-1" x1="1017.34" y1="1940.71" x2="1017.34" y2="1944.96"/><line class="cls-1" x1="3406.1" y1="2001.2" x2="3746.25" y2="2001.2"/><line class="cls-1" x1="3738.6" y1="1945.06" x2="3738.6" y2="1959.23"/><line class="cls-1" x1="3413.75" y1="1945.06" x2="3413.75" y2="1959.23"/><line class="cls-1" x1="200.11" y1="857.97" x2="662.73" y2="857.97"/><line class="cls-1" x1="200.11" y1="829.63" x2="200.11" y2="857.97"/><line class="cls-1" x1="684.84" y1="829.63" x2="200.11" y2="829.63"/><line class="cls-1" x1="684.84" y1="1056.4" x2="684.84" y2="829.63"/><line class="cls-1" x1="662.73" y1="1056.4" x2="684.84" y2="1056.4"/><line class="cls-1" x1="1453.03" y1="1940.71" x2="1453.03" y2="1944.96"/><line class="cls-1" x1="1163.89" y1="1940.71" x2="1163.89" y2="1944.96"/><line class="cls-1" x1="1146.03" y1="1940.71" x2="1146.03" y2="1944.96"/><line class="cls-1" x1="1470.88" y1="1940.71" x2="1470.88" y2="1944.96"/><line class="cls-1" x1="1924.43" y1="1945.06" x2="1924.43" y2="1959.23"/><line class="cls-1" x1="1599.58" y1="1945.06" x2="1599.58" y2="1959.23"/><line class="cls-1" x1="200.11" y1="1028.05" x2="662.73" y2="1028.05"/><line class="cls-1" x1="2045.47" y1="1945.06" x2="2045.47" y2="1897.44"/><line class="cls-1" x1="2831.51" y1="1945.06" x2="2831.51" y2="1959.23"/><line class="cls-1" x1="2506.66" y1="1945.06" x2="2506.66" y2="1959.23"/><line class="cls-1" x1="2377.97" y1="1945.06" x2="2377.97" y2="1959.23"/><line class="cls-1" x1="2053.12" y1="1945.06" x2="2053.12" y2="1959.23"/><line class="cls-1" x1="528.08" y1="1998.76" x2="509.66" y2="1998.76"/><line class="cls-1" x1="1017.34" y1="1945.06" x2="1017.34" y2="1959.23"/><line class="cls-1" x1="692.49" y1="1945.06" x2="692.49" y2="1959.23"/><line class="cls-1" x1="535.17" y1="2001.6" x2="509.66" y2="2001.6"/><line class="cls-1" x1="1906.57" y1="1959.23" x2="1906.57" y2="1963.49"/><line class="cls-1" x1="1617.43" y1="1959.23" x2="1617.43" y2="1963.49"/><line class="cls-1" x1="1599.58" y1="1959.23" x2="1599.58" y2="1963.49"/><line class="cls-1" x1="1924.43" y1="1959.23" x2="1924.43" y2="1963.49"/><line class="cls-1" x1="1138.38" y1="2001.2" x2="1478.54" y2="2001.2"/><line class="cls-1" x1="3292.71" y1="1951.86" x2="3292.71" y2="1952.43"/><line class="cls-1" x1="684.84" y1="471.05" x2="684.84" y2="85.53"/><line class="cls-1" x1="3292.71" y1="1945.06" x2="3292.71" y2="1951.86"/><polyline class="cls-1" points="200.11 372.4 200.11 85.53 662.73 85.53"/><line class="cls-1" x1="187.93" y1="1999.49" x2="110.54" y2="1999.49"/><line class="cls-1" x1="556.43" y1="1997.34" x2="556.43" y2="1999.49"/><line class="cls-1" x1="556.43" y1="1897.44" x2="556.43" y2="1986.01"/><line class="cls-1" x1="3774.6" y1="579.33" x2="3774.6" y2="579.33"/><line class="cls-1" x1="662.73" y1="397.91" x2="662.73" y2="372.4"/><line class="cls-1" x1="2045.47" y1="2001.2" x2="2385.62" y2="2001.2"/><line class="cls-1" x1="1591.92" y1="2001.2" x2="1932.08" y2="2001.2"/><polyline class="cls-1" points="200.11 1398.65 210.75 1398.65 210.75 1366.79 200.11 1366.79"/><line class="cls-1" x1="304.15" y1="1986.01" x2="304.15" y2="1997.34"/><line class="cls-1" x1="244.62" y1="1986.01" x2="244.62" y2="1997.34"/><line class="cls-1" x1="542.26" y1="1986.01" x2="542.26" y2="1997.34"/><line class="cls-1" x1="482.73" y1="1986.01" x2="482.73" y2="1997.34"/><line class="cls-1" x1="383.52" y1="1986.01" x2="383.52" y2="1997.34"/><line class="cls-1" x1="323.99" y1="1986.01" x2="323.99" y2="1997.34"/><line class="cls-1" x1="462.89" y1="1986.01" x2="462.89" y2="1997.34"/><line class="cls-1" x1="403.36" y1="1986.01" x2="403.36" y2="1997.34"/><line class="cls-1" x1="1932.08" y1="1945.06" x2="1932.08" y2="1945.06"/><line class="cls-1" x1="3292.71" y1="1945.06" x2="3292.71" y2="1945.06"/><line class="cls-1" x1="3720.74" y1="1940.71" x2="3720.74" y2="1944.96"/><line class="cls-1" x1="3431.61" y1="1940.71" x2="3431.61" y2="1944.96"/><line class="cls-1" x1="3413.75" y1="1940.71" x2="3413.75" y2="1944.96"/><line class="cls-1" x1="3738.6" y1="1940.71" x2="3738.6" y2="1944.96"/><line class="cls-1" x1="2360.11" y1="1940.71" x2="2360.11" y2="1945.06"/><line class="cls-1" x1="2070.98" y1="1940.71" x2="2070.98" y2="1945.06"/><line class="cls-1" x1="2813.65" y1="1940.71" x2="2813.65" y2="1944.96"/><line class="cls-1" x1="2524.52" y1="1940.71" x2="2524.52" y2="1944.96"/><line class="cls-1" x1="2506.66" y1="1940.71" x2="2506.66" y2="1944.96"/><line class="cls-1" x1="2831.51" y1="1940.71" x2="2831.51" y2="1944.96"/><line class="cls-1" x1="1906.57" y1="1940.71" x2="1906.57" y2="1944.96"/><line class="cls-1" x1="1617.43" y1="1940.71" x2="1617.43" y2="1944.96"/><line class="cls-1" x1="1599.58" y1="1940.71" x2="1599.58" y2="1944.96"/><line class="cls-1" x1="1924.43" y1="1940.71" x2="1924.43" y2="1944.96"/><line class="cls-1" x1="2952.55" y1="1959.16" x2="3292.71" y2="1959.16"/><line class="cls-1" x1="1470.88" y1="1945.06" x2="1470.88" y2="1959.23"/><line class="cls-1" x1="1146.03" y1="1945.06" x2="1146.03" y2="1959.23"/><line class="cls-1" x1="684.84" y1="2001.2" x2="1025" y2="2001.2"/><line class="cls-1" x1="2813.65" y1="1959.23" x2="2813.65" y2="1963.49"/><line class="cls-1" x1="2524.52" y1="1959.23" x2="2524.52" y2="1963.49"/><line class="cls-1" x1="2506.66" y1="1959.23" x2="2506.66" y2="1963.49"/><line class="cls-1" x1="2831.51" y1="1959.23" x2="2831.51" y2="1963.49"/><line class="cls-1" x1="2360.11" y1="1959.23" x2="2360.11" y2="1963.59"/><line class="cls-1" x1="2070.98" y1="1959.23" x2="2070.98" y2="1963.59"/><line class="cls-1" x1="598.95" y1="1999.49" x2="598.95" y2="2254.6"/><line class="cls-1" x1="187.93" y1="2254.6" x2="187.93" y2="1999.49"/><line class="cls-1" x1="3267.2" y1="1940.71" x2="3267.2" y2="1944.96"/><line class="cls-1" x1="2978.06" y1="1940.71" x2="2978.06" y2="1944.96"/><line class="cls-1" x1="2960.21" y1="1940.71" x2="2960.21" y2="1944.96"/><line class="cls-1" x1="3285.06" y1="1940.71" x2="3285.06" y2="1944.96"/><line class="cls-1" x1="200.11" y1="372.4" x2="200.11" y2="397.91"/><line class="cls-1" x1="662.73" y1="85.53" x2="662.73" y2="372.4"/><line class="cls-1" x1="684.84" y1="85.53" x2="662.73" y2="85.53"/><line class="cls-1" x1="662.73" y1="471.05" x2="684.84" y2="471.05"/><line class="cls-1" x1="662.73" y1="397.91" x2="662.73" y2="471.05"/><line class="cls-1" x1="3267.2" y1="1959.23" x2="3267.2" y2="1963.49"/><line class="cls-1" x1="2978.06" y1="1959.23" x2="2978.06" y2="1963.49"/><line class="cls-1" x1="2960.21" y1="1959.23" x2="2960.21" y2="1963.49"/><line class="cls-1" x1="3285.06" y1="1959.23" x2="3285.06" y2="1963.49"/><line class="cls-1" x1="3285.06" y1="1945.06" x2="3285.06" y2="1959.23"/><line class="cls-1" x1="2960.21" y1="1945.06" x2="2960.21" y2="1959.23"/><line class="cls-1" x1="3720.74" y1="1959.23" x2="3720.74" y2="1963.49"/><line class="cls-1" x1="3431.61" y1="1959.23" x2="3431.61" y2="1963.49"/><line class="cls-1" x1="3413.75" y1="1959.23" x2="3413.75" y2="1963.49"/><line class="cls-1" x1="3738.6" y1="1959.23" x2="3738.6" y2="1963.49"/><line class="cls-1" x1="1453.03" y1="1959.23" x2="1453.03" y2="1963.49"/><line class="cls-1" x1="1163.89" y1="1959.23" x2="1163.89" y2="1963.49"/><line class="cls-1" x1="1146.03" y1="1959.23" x2="1146.03" y2="1963.49"/><line class="cls-1" x1="1470.88" y1="1959.23" x2="1470.88" y2="1963.49"/><line class="cls-1" x1="2385.62" y1="1945.06" x2="2385.62" y2="1945.06"/><line class="cls-1" x1="447.86" y1="397.91" x2="447.86" y2="372.4"/><line class="cls-1" x1="999.48" y1="1959.23" x2="999.48" y2="1963.49"/><line class="cls-1" x1="692.49" y1="1959.23" x2="692.49" y2="1963.49"/><line class="cls-1" x1="1017.34" y1="1959.23" x2="1017.34" y2="1963.49"/><line class="cls-1" x1="509.66" y1="1981.75" x2="509.66" y2="1984.59"/><line class="cls-1" x1="535.17" y1="1981.75" x2="509.66" y2="1981.75"/><line class="cls-1" x1="535.17" y1="1981.75" x2="535.17" y2="1984.59"/><line class="cls-1" x1="2499.01" y1="2001.2" x2="2839.17" y2="2001.2"/><line class="cls-1" x1="2952.55" y1="2001.2" x2="3292.71" y2="2001.2"/><line class="cls-1" x1="535.17" y1="1999.49" x2="598.95" y2="1999.49"/><polyline class="cls-1" points="3306.88 497.41 3306.88 651.61 1487.04 651.61 1487.04 346.89 684.84 346.89"/><line class="cls-1" x1="710.35" y1="1959.23" x2="710.35" y2="1963.49"/><line class="cls-1" x1="710.35" y1="1940.71" x2="710.35" y2="1944.96"/><polyline class="cls-1" points="684.84 1756.56 662.73 1756.56 662.73 1897.44"/><line class="cls-1" x1="2499.01" y1="1999.49" x2="2499.01" y2="1999.49"/><line class="cls-1" x1="2045.47" y1="1999.49" x2="2045.47" y2="1999.49"/><line class="cls-1" x1="684.84" y1="1999.49" x2="684.84" y2="1999.49"/><line class="cls-1" x1="230.45" y1="1999.49" x2="230.45" y2="1897.44"/><line class="cls-1" x1="1017.34" y1="1944.96" x2="692.49" y2="1944.96"/><line class="cls-1" x1="1017.34" y1="1940.71" x2="692.49" y2="1940.71"/><line class="cls-1" x1="3746.25" y1="1999.49" x2="3746.25" y2="2001.2"/><line class="cls-1" x1="3406.1" y1="1999.49" x2="3406.1" y2="2001.2"/><line class="cls-1" x1="3746.25" y1="1959.23" x2="3746.25" y2="1999.49"/><line class="cls-1" x1="3406.1" y1="1959.23" x2="3406.1" y2="1999.49"/><line class="cls-1" x1="3746.25" y1="1959.23" x2="3406.1" y2="1959.23"/><line class="cls-1" x1="3406.1" y1="1945.06" x2="3406.1" y2="1959.23"/><line class="cls-1" x1="3746.25" y1="1945.06" x2="3406.1" y2="1945.06"/><line class="cls-1" x1="3746.25" y1="1945.06" x2="3746.25" y2="1959.23"/><line class="cls-1" x1="662.73" y1="857.97" x2="662.73" y2="1056.4"/><line class="cls-1" x1="1470.88" y1="1944.96" x2="1146.03" y2="1944.96"/><line class="cls-1" x1="1470.88" y1="1940.71" x2="1146.03" y2="1940.71"/><line class="cls-1" x1="1932.08" y1="1959.23" x2="1591.92" y2="1959.23"/><line class="cls-1" x1="1591.92" y1="1945.06" x2="1591.92" y2="1959.23"/><line class="cls-1" x1="1932.08" y1="1945.06" x2="1591.92" y2="1945.06"/><line class="cls-1" x1="1932.08" y1="1945.06" x2="1932.08" y2="1959.23"/><polyline class="cls-1" points="3406.1 1945.06 3406.1 1897.44 3292.71 1897.44 3292.71 1971.04 3406.1 1971.04"/><line class="cls-1" x1="2839.17" y1="1959.23" x2="2499.01" y2="1959.23"/><line class="cls-1" x1="2499.01" y1="1945.06" x2="2499.01" y2="1959.23"/><line class="cls-1" x1="2839.17" y1="1945.06" x2="2499.01" y2="1945.06"/><line class="cls-1" x1="2839.17" y1="1945.06" x2="2839.17" y2="1959.23"/></svg>