<?xml version="1.0" encoding="UTF-8"?><svg id="ELEVATIONS" xmlns="http://www.w3.org/2000/svg" viewBox="0 0 4535.43 2551.18"><defs><style>.cls-1{fill:none;stroke:#000;stroke-linecap:round;stroke-linejoin:round;stroke-width:2.83px;}</style></defs><g id="TOP"><line class="cls-1" x1="4028.88" y1="2002.96" x2="4028.88" y2="2076.56"/><line class="cls-1" x1="2668.25" y1="2064.76" x2="2328.09" y2="2064.76"/><line class="cls-1" x1="2328.09" y1="2050.58" x2="2328.09" y2="2064.76"/><line class="cls-1" x1="2668.25" y1="2050.58" x2="2328.09" y2="2050.58"/><line class="cls-1" x1="2668.25" y1="2050.58" x2="2668.25" y2="2064.76"/><line class="cls-1" x1="482.74" y1="2002.96" x2="4057.23" y2="2002.96"/><polyline class="cls-1" points="2781.64 2050.58 2781.64 2002.96 2668.25 2002.96 2668.25 2076.56 2781.64 2076.56"/><line class="cls-1" x1="3235.18" y1="2050.58" x2="3235.18" y2="2002.96"/><polyline class="cls-1" points="3121.79 2002.96 3121.79 2076.56 3235.18 2076.56"/><line class="cls-1" x1="1307.62" y1="2064.76" x2="967.47" y2="2064.76"/><line class="cls-1" x1="967.47" y1="2050.58" x2="967.47" y2="2064.76"/><line class="cls-1" x1="1307.62" y1="2050.58" x2="967.47" y2="2050.58"/><line class="cls-1" x1="1307.62" y1="2050.58" x2="1307.62" y2="2064.76"/><line class="cls-1" x1="792.28" y1="2104.28" x2="792.28" y2="2107.12"/><line class="cls-1" x1="817.8" y1="2104.28" x2="817.8" y2="2107.12"/><polyline class="cls-1" points="1421.01 2050.58 1421.01 2003.06 1307.62 2003.06 1307.62 2050.58"/><line class="cls-1" x1="2207.05" y1="2069.01" x2="1882.2" y2="2069.01"/><line class="cls-1" x1="1761.16" y1="2105.01" x2="1761.16" y2="2106.72"/><line class="cls-1" x1="1421.01" y1="2105.01" x2="1421.01" y2="2106.72"/><line class="cls-1" x1="1761.16" y1="2064.76" x2="1761.16" y2="2105.01"/><line class="cls-1" x1="1421.01" y1="2064.76" x2="1421.01" y2="2105.01"/><polyline class="cls-1" points="2214.71 2002.96 2214.71 2076.56 2328.09 2076.56"/><line class="cls-1" x1="2214.71" y1="2057.95" x2="1874.55" y2="2057.95"/><line class="cls-1" x1="2214.71" y1="2057.39" x2="1874.55" y2="2057.39"/><line class="cls-1" x1="4028.88" y1="2002.96" x2="4057.23" y2="2002.96"/><polyline class="cls-1" points="967.47 191.06 3589.51 191.06 3589.51 602.93 4057.23 602.93 4057.23 2002.96"/><line class="cls-1" x1="482.74" y1="2002.96" x2="482.74" y2="963.5"/><line class="cls-1" x1="2668.25" y1="2105.01" x2="2668.25" y2="2106.72"/><line class="cls-1" x1="2328.09" y1="2105.01" x2="2328.09" y2="2106.72"/><line class="cls-1" x1="2668.25" y1="2064.76" x2="2668.25" y2="2105.01"/><line class="cls-1" x1="2328.09" y1="2064.76" x2="2328.09" y2="2105.01"/><line class="cls-1" x1="2214.71" y1="2105.01" x2="2214.71" y2="2106.72"/><line class="cls-1" x1="1874.55" y1="2105.01" x2="1874.55" y2="2106.72"/><line class="cls-1" x1="2214.71" y1="2064.76" x2="2214.71" y2="2105.01"/><line class="cls-1" x1="1874.55" y1="2064.76" x2="1874.55" y2="2105.01"/><line class="cls-1" x1="839.06" y1="2102.87" x2="513.07" y2="2102.87"/><line class="cls-1" x1="513.07" y1="2091.53" x2="513.07" y2="2102.87"/><line class="cls-1" x1="839.06" y1="2091.53" x2="513.07" y2="2091.53"/><line class="cls-1" x1="839.06" y1="2091.53" x2="839.06" y2="2102.87"/><line class="cls-1" x1="3121.79" y1="2057.95" x2="2781.64" y2="2057.95"/><line class="cls-1" x1="3121.79" y1="2057.39" x2="2781.64" y2="2057.39"/><line class="cls-1" x1="2668.25" y1="2057.95" x2="2328.09" y2="2057.95"/><line class="cls-1" x1="2668.25" y1="2057.39" x2="2328.09" y2="2057.39"/><line class="cls-1" x1="1307.62" y1="2057.95" x2="967.47" y2="2057.95"/><line class="cls-1" x1="1307.62" y1="2057.39" x2="967.47" y2="2057.39"/><path class="cls-1" d="M513.07,2430.99c42.79,0,85.17-8.43,124.71-24.8,39.57-16.38,75.52-40.4,105.8-70.68,30.28-30.28,54.3-66.24,70.69-105.81,16.37-39.54,24.79-81.91,24.79-124.7"/><polyline class="cls-1" points="1874.55 2050.58 1874.55 2002.96 1761.16 2002.96 1761.16 2050.58"/><line class="cls-1" x1="967.47" y1="2050.58" x2="967.47" y2="1862.08"/><line class="cls-1" x1="4021.23" y1="2050.49" x2="3696.38" y2="2050.49"/><line class="cls-1" x1="4021.23" y1="2046.23" x2="3696.38" y2="2046.23"/><line class="cls-1" x1="2335.75" y1="2046.23" x2="2335.75" y2="2050.58"/><line class="cls-1" x1="2660.6" y1="2046.23" x2="2335.75" y2="2046.23"/><line class="cls-1" x1="2660.6" y1="2046.23" x2="2660.6" y2="2050.58"/><line class="cls-1" x1="513.07" y1="2105.01" x2="513.07" y2="2430.99"/><line class="cls-1" x1="3114.14" y1="2050.49" x2="2789.29" y2="2050.49"/><line class="cls-1" x1="3114.14" y1="2046.23" x2="2789.29" y2="2046.23"/><line class="cls-1" x1="2207.05" y1="2050.49" x2="1882.2" y2="2050.49"/><line class="cls-1" x1="2207.05" y1="2046.23" x2="1882.2" y2="2046.23"/><line class="cls-1" x1="1761.16" y1="2064.76" x2="1421.01" y2="2064.76"/><line class="cls-1" x1="1421.01" y1="2050.58" x2="1421.01" y2="2064.76"/><line class="cls-1" x1="1761.16" y1="2050.58" x2="1421.01" y2="2050.58"/><line class="cls-1" x1="1761.16" y1="2050.58" x2="1761.16" y2="2064.76"/><line class="cls-1" x1="1307.62" y1="2105.01" x2="1307.62" y2="2106.72"/><line class="cls-1" x1="967.47" y1="2105.01" x2="967.47" y2="2106.72"/><line class="cls-1" x1="1307.62" y1="2064.76" x2="1307.62" y2="2105.01"/><line class="cls-1" x1="967.47" y1="2064.76" x2="967.47" y2="2105.01"/><line class="cls-1" x1="3114.14" y1="2069.01" x2="2789.29" y2="2069.01"/><line class="cls-1" x1="2660.6" y1="2069.11" x2="2335.75" y2="2069.11"/><line class="cls-1" x1="2335.75" y1="2064.76" x2="2335.75" y2="2069.11"/><line class="cls-1" x1="2660.6" y1="2064.76" x2="2660.6" y2="2069.11"/><line class="cls-1" x1="881.58" y1="2360.13" x2="470.55" y2="2360.13"/><line class="cls-1" x1="470.55" y1="2105.01" x2="792.29" y2="2105.01"/><line class="cls-1" x1="3567.68" y1="2050.49" x2="3242.83" y2="2050.49"/><line class="cls-1" x1="3567.68" y1="2046.23" x2="3242.83" y2="2046.23"/><line class="cls-1" x1="482.74" y1="503.43" x2="945.36" y2="503.43"/><line class="cls-1" x1="945.36" y1="477.92" x2="482.74" y2="477.92"/><line class="cls-1" x1="3567.68" y1="2069.01" x2="3242.83" y2="2069.01"/><line class="cls-1" x1="3575.34" y1="2064.76" x2="3235.18" y2="2064.76"/><line class="cls-1" x1="3235.18" y1="2050.58" x2="3235.18" y2="2064.76"/><line class="cls-1" x1="3575.34" y1="2050.58" x2="3235.18" y2="2050.58"/><line class="cls-1" x1="3575.34" y1="2057.95" x2="3575.34" y2="2064.76"/><line class="cls-1" x1="4021.23" y1="2069.01" x2="3696.38" y2="2069.01"/><line class="cls-1" x1="1753.51" y1="2069.01" x2="1428.66" y2="2069.01"/><line class="cls-1" x1="1299.97" y1="2069.01" x2="975.12" y2="2069.01"/><line class="cls-1" x1="4028.88" y1="2057.95" x2="3688.72" y2="2057.95"/><line class="cls-1" x1="4028.88" y1="2057.39" x2="3688.72" y2="2057.39"/><line class="cls-1" x1="1761.16" y1="2057.95" x2="1421.01" y2="2057.95"/><line class="cls-1" x1="1761.16" y1="2057.39" x2="1421.01" y2="2057.39"/><line class="cls-1" x1="3121.79" y1="2105.01" x2="3121.79" y2="2106.72"/><line class="cls-1" x1="2781.64" y1="2105.01" x2="2781.64" y2="2106.72"/><line class="cls-1" x1="3121.79" y1="2064.76" x2="3121.79" y2="2105.01"/><line class="cls-1" x1="2781.64" y1="2064.76" x2="2781.64" y2="2105.01"/><line class="cls-1" x1="3575.34" y1="2105.01" x2="3575.34" y2="2106.72"/><line class="cls-1" x1="3235.18" y1="2105.01" x2="3235.18" y2="2106.72"/><line class="cls-1" x1="3575.34" y1="2064.76" x2="3575.34" y2="2105.01"/><line class="cls-1" x1="3235.18" y1="2064.76" x2="3235.18" y2="2105.01"/><line class="cls-1" x1="555.59" y1="2101.45" x2="555.59" y2="2102.87"/><line class="cls-1" x1="796.54" y1="2101.45" x2="555.59" y2="2101.45"/><line class="cls-1" x1="796.54" y1="2101.45" x2="796.54" y2="2102.87"/><line class="cls-1" x1="555.59" y1="2091.53" x2="555.59" y2="2092.95"/><line class="cls-1" x1="796.54" y1="2091.53" x2="796.54" y2="2092.95"/><line class="cls-1" x1="796.54" y1="2092.95" x2="555.59" y2="2092.95"/><line class="cls-1" x1="2660.6" y1="2050.49" x2="2335.75" y2="2050.49"/><line class="cls-1" x1="2660.6" y1="2069.01" x2="2335.75" y2="2069.01"/><polyline class="cls-1" points="3674.55 106.02 3674.55 517.89 4142.27 517.89 4142.27 2105.01 4028.88 2105.01"/><polyline class="cls-1" points="1307.62 2050.58 1307.62 2076.66 1307.62 2076.66"/><polyline class="cls-1" points="1421.01 2076.66 1421.01 2076.66 1421.01 2064.76 1421.01 2050.58"/><line class="cls-1" x1="1421.01" y1="2064.68" x2="1761.16" y2="2064.68"/><line class="cls-1" x1="3575.34" y1="2057.95" x2="3235.18" y2="2057.95"/><line class="cls-1" x1="3575.34" y1="2057.39" x2="3235.18" y2="2057.39"/><line class="cls-1" x1="2328.09" y1="2064.68" x2="2668.25" y2="2064.68"/><line class="cls-1" x1="1874.55" y1="2064.68" x2="2214.71" y2="2064.68"/><line class="cls-1" x1="967.47" y1="2064.68" x2="1307.62" y2="2064.68"/><line class="cls-1" x1="2781.64" y1="2064.68" x2="3121.79" y2="2064.68"/><line class="cls-1" x1="393.17" y1="2105.01" x2="393.17" y2="106.02"/><line class="cls-1" x1="967.47" y1="2105.01" x2="881.58" y2="2105.01"/><line class="cls-1" x1="2214.71" y1="2105.01" x2="2328.09" y2="2105.01"/><line class="cls-1" x1="2668.25" y1="2105.01" x2="2781.64" y2="2105.01"/><line class="cls-1" x1="3121.79" y1="2105.01" x2="3235.18" y2="2105.01"/><line class="cls-1" x1="3575.34" y1="2105.01" x2="3688.72" y2="2105.01"/><line class="cls-1" x1="1307.62" y1="2076.66" x2="1421.01" y2="2076.66"/><line class="cls-1" x1="482.74" y1="935.15" x2="482.74" y2="503.43"/><line class="cls-1" x1="792.29" y1="2105.01" x2="817.8" y2="2105.01"/><line class="cls-1" x1="1761.16" y1="2076.56" x2="1874.55" y2="2076.56"/><line class="cls-1" x1="945.36" y1="1161.92" x2="482.74" y2="1161.92"/><line class="cls-1" x1="3674.55" y1="106.02" x2="393.17" y2="106.02"/><line class="cls-1" x1="810.71" y1="2090.11" x2="792.28" y2="2090.11"/><line class="cls-1" x1="1421.01" y1="2064.68" x2="1421.01" y2="2064.68"/><line class="cls-1" x1="1421.01" y1="2105.01" x2="1307.62" y2="2105.01"/><polyline class="cls-1" points="470.55 2360.13 470.55 2445.17 881.58 2445.17 881.58 2360.13"/><line class="cls-1" x1="1761.16" y1="2105.01" x2="1874.55" y2="2105.01"/><line class="cls-1" x1="4028.88" y1="2050.58" x2="4028.88" y2="2050.58"/><line class="cls-1" x1="3688.72" y1="2064.68" x2="4028.88" y2="2064.68"/><line class="cls-1" x1="3121.79" y1="2050.58" x2="3121.79" y2="2050.58"/><line class="cls-1" x1="1282.11" y1="2046.23" x2="1282.11" y2="2050.49"/><line class="cls-1" x1="975.12" y1="2046.23" x2="975.12" y2="2050.49"/><line class="cls-1" x1="1299.97" y1="2046.23" x2="1299.97" y2="2050.49"/><line class="cls-1" x1="3688.72" y1="2106.72" x2="4028.88" y2="2106.72"/><line class="cls-1" x1="4021.23" y1="2050.58" x2="4021.23" y2="2064.76"/><line class="cls-1" x1="3696.38" y1="2050.58" x2="3696.38" y2="2064.76"/><line class="cls-1" x1="482.74" y1="963.5" x2="945.36" y2="963.5"/><line class="cls-1" x1="482.74" y1="935.15" x2="482.74" y2="963.5"/><line class="cls-1" x1="967.47" y1="935.15" x2="482.74" y2="935.15"/><line class="cls-1" x1="967.47" y1="1161.92" x2="967.47" y2="935.15"/><line class="cls-1" x1="945.36" y1="1161.92" x2="967.47" y2="1161.92"/><line class="cls-1" x1="1735.65" y1="2046.23" x2="1735.65" y2="2050.49"/><line class="cls-1" x1="1446.52" y1="2046.23" x2="1446.52" y2="2050.49"/><line class="cls-1" x1="1428.66" y1="2046.23" x2="1428.66" y2="2050.49"/><line class="cls-1" x1="1753.51" y1="2046.23" x2="1753.51" y2="2050.49"/><line class="cls-1" x1="2207.05" y1="2050.58" x2="2207.05" y2="2064.76"/><line class="cls-1" x1="1882.2" y1="2050.58" x2="1882.2" y2="2064.76"/><line class="cls-1" x1="482.74" y1="1133.58" x2="945.36" y2="1133.58"/><line class="cls-1" x1="2328.09" y1="2050.58" x2="2328.09" y2="2002.96"/><line class="cls-1" x1="3114.14" y1="2050.58" x2="3114.14" y2="2064.76"/><line class="cls-1" x1="2789.29" y1="2050.58" x2="2789.29" y2="2064.76"/><line class="cls-1" x1="2660.6" y1="2050.58" x2="2660.6" y2="2064.76"/><line class="cls-1" x1="2335.75" y1="2050.58" x2="2335.75" y2="2064.76"/><line class="cls-1" x1="810.71" y1="2104.28" x2="792.28" y2="2104.28"/><line class="cls-1" x1="1299.97" y1="2050.58" x2="1299.97" y2="2064.76"/><line class="cls-1" x1="975.12" y1="2050.58" x2="975.12" y2="2064.76"/><line class="cls-1" x1="817.8" y1="2107.12" x2="792.28" y2="2107.12"/><line class="cls-1" x1="2189.2" y1="2064.76" x2="2189.2" y2="2069.01"/><line class="cls-1" x1="1900.06" y1="2064.76" x2="1900.06" y2="2069.01"/><line class="cls-1" x1="1882.2" y1="2064.76" x2="1882.2" y2="2069.01"/><line class="cls-1" x1="2207.05" y1="2064.76" x2="2207.05" y2="2069.01"/><line class="cls-1" x1="1421.01" y1="2106.72" x2="1761.16" y2="2106.72"/><line class="cls-1" x1="3575.34" y1="2057.39" x2="3575.34" y2="2057.95"/><line class="cls-1" x1="967.47" y1="576.57" x2="967.47" y2="191.06"/><line class="cls-1" x1="3575.34" y1="2050.58" x2="3575.34" y2="2057.39"/><polyline class="cls-1" points="482.74 477.92 482.74 191.06 945.36 191.06"/><line class="cls-1" x1="470.55" y1="2105.01" x2="393.17" y2="2105.01"/><line class="cls-1" x1="839.06" y1="2102.87" x2="839.06" y2="2105.01"/><line class="cls-1" x1="839.06" y1="2002.96" x2="839.06" y2="2091.53"/><line class="cls-1" x1="4057.23" y1="684.85" x2="4057.23" y2="684.85"/><line class="cls-1" x1="945.36" y1="503.43" x2="945.36" y2="477.92"/><line class="cls-1" x1="2328.09" y1="2106.72" x2="2668.25" y2="2106.72"/><line class="cls-1" x1="1874.55" y1="2106.72" x2="2214.71" y2="2106.72"/><polyline class="cls-1" points="482.74 1504.18 493.37 1504.18 493.37 1472.32 482.74 1472.32"/><line class="cls-1" x1="586.77" y1="2091.53" x2="586.77" y2="2102.87"/><line class="cls-1" x1="527.25" y1="2091.53" x2="527.25" y2="2102.87"/><line class="cls-1" x1="824.88" y1="2091.53" x2="824.88" y2="2102.87"/><line class="cls-1" x1="765.36" y1="2091.53" x2="765.36" y2="2102.87"/><line class="cls-1" x1="666.14" y1="2091.53" x2="666.14" y2="2102.87"/><line class="cls-1" x1="606.62" y1="2091.53" x2="606.62" y2="2102.87"/><line class="cls-1" x1="745.51" y1="2091.53" x2="745.51" y2="2102.87"/><line class="cls-1" x1="685.99" y1="2091.53" x2="685.99" y2="2102.87"/><line class="cls-1" x1="2214.71" y1="2050.58" x2="2214.71" y2="2050.58"/><line class="cls-1" x1="3575.34" y1="2050.58" x2="3575.34" y2="2050.58"/><line class="cls-1" x1="4003.37" y1="2046.23" x2="4003.37" y2="2050.49"/><line class="cls-1" x1="3714.24" y1="2046.23" x2="3714.24" y2="2050.49"/><line class="cls-1" x1="3696.38" y1="2046.23" x2="3696.38" y2="2050.49"/><line class="cls-1" x1="4021.23" y1="2046.23" x2="4021.23" y2="2050.49"/><line class="cls-1" x1="2642.74" y1="2046.23" x2="2642.74" y2="2050.58"/><line class="cls-1" x1="2353.6" y1="2046.23" x2="2353.6" y2="2050.58"/><line class="cls-1" x1="3096.28" y1="2046.23" x2="3096.28" y2="2050.49"/><line class="cls-1" x1="2807.15" y1="2046.23" x2="2807.15" y2="2050.49"/><line class="cls-1" x1="2789.29" y1="2046.23" x2="2789.29" y2="2050.49"/><line class="cls-1" x1="3114.14" y1="2046.23" x2="3114.14" y2="2050.49"/><line class="cls-1" x1="2189.2" y1="2046.23" x2="2189.2" y2="2050.49"/><line class="cls-1" x1="1900.06" y1="2046.23" x2="1900.06" y2="2050.49"/><line class="cls-1" x1="1882.2" y1="2046.23" x2="1882.2" y2="2050.49"/><line class="cls-1" x1="2207.05" y1="2046.23" x2="2207.05" y2="2050.49"/><line class="cls-1" x1="3235.18" y1="2064.68" x2="3575.34" y2="2064.68"/><line class="cls-1" x1="1753.51" y1="2050.58" x2="1753.51" y2="2064.76"/><line class="cls-1" x1="1428.66" y1="2050.58" x2="1428.66" y2="2064.76"/><line class="cls-1" x1="967.47" y1="2106.72" x2="1307.62" y2="2106.72"/><line class="cls-1" x1="3096.28" y1="2064.76" x2="3096.28" y2="2069.01"/><line class="cls-1" x1="2807.15" y1="2064.76" x2="2807.15" y2="2069.01"/><line class="cls-1" x1="2789.29" y1="2064.76" x2="2789.29" y2="2069.01"/><line class="cls-1" x1="3114.14" y1="2064.76" x2="3114.14" y2="2069.01"/><line class="cls-1" x1="2642.74" y1="2064.76" x2="2642.74" y2="2069.11"/><line class="cls-1" x1="2353.6" y1="2064.76" x2="2353.6" y2="2069.11"/><line class="cls-1" x1="881.58" y1="2105.01" x2="881.58" y2="2360.13"/><line class="cls-1" x1="470.55" y1="2360.13" x2="470.55" y2="2105.01"/><line class="cls-1" x1="3549.83" y1="2046.23" x2="3549.83" y2="2050.49"/><line class="cls-1" x1="3260.69" y1="2046.23" x2="3260.69" y2="2050.49"/><line class="cls-1" x1="3242.83" y1="2046.23" x2="3242.83" y2="2050.49"/><line class="cls-1" x1="3567.68" y1="2046.23" x2="3567.68" y2="2050.49"/><line class="cls-1" x1="482.74" y1="477.92" x2="482.74" y2="503.43"/><line class="cls-1" x1="945.36" y1="191.06" x2="945.36" y2="477.92"/><line class="cls-1" x1="967.47" y1="191.06" x2="945.36" y2="191.06"/><line class="cls-1" x1="945.36" y1="576.57" x2="967.47" y2="576.57"/><line class="cls-1" x1="945.36" y1="503.43" x2="945.36" y2="576.57"/><line class="cls-1" x1="3549.83" y1="2064.76" x2="3549.83" y2="2069.01"/><line class="cls-1" x1="3260.69" y1="2064.76" x2="3260.69" y2="2069.01"/><line class="cls-1" x1="3242.83" y1="2064.76" x2="3242.83" y2="2069.01"/><line class="cls-1" x1="3567.68" y1="2064.76" x2="3567.68" y2="2069.01"/><line class="cls-1" x1="3567.68" y1="2050.58" x2="3567.68" y2="2064.76"/><line class="cls-1" x1="3242.83" y1="2050.58" x2="3242.83" y2="2064.76"/><line class="cls-1" x1="4003.37" y1="2064.76" x2="4003.37" y2="2069.01"/><line class="cls-1" x1="3714.24" y1="2064.76" x2="3714.24" y2="2069.01"/><line class="cls-1" x1="3696.38" y1="2064.76" x2="3696.38" y2="2069.01"/><line class="cls-1" x1="4021.23" y1="2064.76" x2="4021.23" y2="2069.01"/><line class="cls-1" x1="1735.65" y1="2064.76" x2="1735.65" y2="2069.01"/><line class="cls-1" x1="1446.52" y1="2064.76" x2="1446.52" y2="2069.01"/><line class="cls-1" x1="1428.66" y1="2064.76" x2="1428.66" y2="2069.01"/><line class="cls-1" x1="1753.51" y1="2064.76" x2="1753.51" y2="2069.01"/><line class="cls-1" x1="2668.25" y1="2050.58" x2="2668.25" y2="2050.58"/><line class="cls-1" x1="730.49" y1="503.43" x2="730.49" y2="477.92"/><line class="cls-1" x1="1282.11" y1="2064.76" x2="1282.11" y2="2069.01"/><line class="cls-1" x1="975.12" y1="2064.76" x2="975.12" y2="2069.01"/><line class="cls-1" x1="1299.97" y1="2064.76" x2="1299.97" y2="2069.01"/><line class="cls-1" x1="792.28" y1="2087.28" x2="792.28" y2="2090.11"/><line class="cls-1" x1="817.8" y1="2087.28" x2="792.28" y2="2087.28"/><line class="cls-1" x1="817.8" y1="2087.28" x2="817.8" y2="2090.11"/><line class="cls-1" x1="2781.64" y1="2106.72" x2="3121.79" y2="2106.72"/><line class="cls-1" x1="3235.18" y1="2106.72" x2="3575.34" y2="2106.72"/><line class="cls-1" x1="817.8" y1="2105.01" x2="881.58" y2="2105.01"/><polyline class="cls-1" points="3589.51 602.93 3589.51 757.13 1769.67 757.13 1769.67 452.41 967.47 452.41"/><line class="cls-1" x1="992.98" y1="2064.76" x2="992.98" y2="2069.01"/><line class="cls-1" x1="992.98" y1="2046.23" x2="992.98" y2="2050.49"/><polyline class="cls-1" points="967.47 1862.08 945.36 1862.08 945.36 2002.96"/><line class="cls-1" x1="2781.64" y1="2105.01" x2="2781.64" y2="2105.01"/><line class="cls-1" x1="2328.09" y1="2105.01" x2="2328.09" y2="2105.01"/><line class="cls-1" x1="967.47" y1="2105.01" x2="967.47" y2="2105.01"/><line class="cls-1" x1="513.07" y1="2105.01" x2="513.07" y2="2002.96"/><line class="cls-1" x1="1299.97" y1="2050.49" x2="975.12" y2="2050.49"/><line class="cls-1" x1="1299.97" y1="2046.23" x2="975.12" y2="2046.23"/><line class="cls-1" x1="4028.88" y1="2105.01" x2="4028.88" y2="2106.72"/><line class="cls-1" x1="3688.72" y1="2105.01" x2="3688.72" y2="2106.72"/><line class="cls-1" x1="4028.88" y1="2064.76" x2="4028.88" y2="2105.01"/><line class="cls-1" x1="3688.72" y1="2064.76" x2="3688.72" y2="2105.01"/><line class="cls-1" x1="4028.88" y1="2064.76" x2="3688.72" y2="2064.76"/><line class="cls-1" x1="3688.72" y1="2050.58" x2="3688.72" y2="2064.76"/><line class="cls-1" x1="4028.88" y1="2050.58" x2="3688.72" y2="2050.58"/><line class="cls-1" x1="4028.88" y1="2050.58" x2="4028.88" y2="2064.76"/><line class="cls-1" x1="945.36" y1="963.5" x2="945.36" y2="1161.92"/><line class="cls-1" x1="1753.51" y1="2050.49" x2="1428.66" y2="2050.49"/><line class="cls-1" x1="1753.51" y1="2046.23" x2="1428.66" y2="2046.23"/><line class="cls-1" x1="2214.71" y1="2064.76" x2="1874.55" y2="2064.76"/><line class="cls-1" x1="1874.55" y1="2050.58" x2="1874.55" y2="2064.76"/><line class="cls-1" x1="2214.71" y1="2050.58" x2="1874.55" y2="2050.58"/><line class="cls-1" x1="2214.71" y1="2050.58" x2="2214.71" y2="2064.76"/><polyline class="cls-1" points="3688.72 2050.58 3688.72 2002.96 3575.34 2002.96 3575.34 2076.56 3688.72 2076.56"/><line class="cls-1" x1="3121.79" y1="2064.76" x2="2781.64" y2="2064.76"/><line class="cls-1" x1="2781.64" y1="2050.58" x2="2781.64" y2="2064.76"/><line class="cls-1" x1="3121.79" y1="2050.58" x2="2781.64" y2="2050.58"/><line class="cls-1" x1="3121.79" y1="2050.58" x2="3121.79" y2="2064.76"/></g></svg>