<?xml version="1.0" encoding="UTF-8"?><svg id="ELEVATIONS" xmlns="http://www.w3.org/2000/svg" viewBox="0 0 4535.43 2551.18"><defs><style>.cls-1{fill:none;stroke:#000;stroke-linecap:round;stroke-linejoin:round;stroke-width:2.83px;}</style></defs><g id="WEST"><line class="cls-1" x1="3212.79" y1="1588.96" x2="3212.79" y2="1301.24"/><line class="cls-1" x1="1353.26" y1="1588.96" x2="3267.21" y2="1588.96"/><line class="cls-1" x1="3267.21" y1="1674" x2="1268.22" y2="1674"/><line class="cls-1" x1="3267.21" y1="1674" x2="1268.22" y2="1674"/><line class="cls-1" x1="1268.22" y1="877.18" x2="3267.21" y2="877.18"/><line class="cls-1" x1="1268.22" y1="877.18" x2="3267.21" y2="877.18"/><line class="cls-1" x1="3267.21" y1="1588.96" x2="3267.21" y2="877.18"/><line class="cls-1" x1="3267.21" y1="1588.96" x2="3267.21" y2="877.18"/><line class="cls-1" x1="1919.34" y1="967.89" x2="1919.34" y2="877.18"/><line class="cls-1" x1="1614.61" y1="967.89" x2="1919.34" y2="967.89"/><line class="cls-1" x1="1614.61" y1="967.89" x2="1614.61" y2="877.18"/><line class="cls-1" x1="1353.26" y1="967.89" x2="1614.61" y2="967.89"/><line class="cls-1" x1="3267.21" y1="1588.96" x2="3267.21" y2="1674"/><line class="cls-1" x1="3267.21" y1="1588.96" x2="3267.21" y2="1674"/><line class="cls-1" x1="1268.22" y1="1588.96" x2="1268.22" y2="1674"/><line class="cls-1" x1="1268.22" y1="1588.96" x2="1268.22" y2="1674"/><line class="cls-1" x1="3165.17" y1="1588.96" x2="3165.17" y2="877.18"/><line class="cls-1" x1="3165.17" y1="1301.24" x2="3267.21" y2="1301.24"/><line class="cls-1" x1="3165.17" y1="909.21" x2="3267.21" y2="909.21"/><line class="cls-1" x1="1353.26" y1="1588.96" x2="1353.26" y2="877.18"/><line class="cls-1" x1="1268.22" y1="1588.96" x2="1268.22" y2="877.18"/><line class="cls-1" x1="1268.22" y1="1588.96" x2="1268.22" y2="877.18"/></g></svg>